<svg xmlns="http://www.w3.org/2000/svg" width="178" height="100" viewBox="0 0 178 100" fill="none"><path d="M88.811 55.3739H83.691V41.6859H88.811V55.3739ZM84.191 54.8739H88.311V42.1859H84.191V54.8739ZM95.935 55.3739H90.918V41.6859H101.4C102.902 41.5643 104.397 41.9858 105.614 42.8739C106.138 43.3532 106.544 43.9471 106.801 44.6092C107.057 45.2713 107.157 45.9837 107.093 46.6909C107.168 47.9128 106.779 49.118 106.004 50.0659C105.087 51.1179 103.561 51.6599 101.469 51.6789C100.942 51.6929 96.993 51.6789 95.938 51.6789L95.935 55.3739ZM91.415 54.8739H95.435V51.1739H95.686C95.737 51.1739 100.864 51.1899 101.457 51.1739C103.406 51.1569 104.807 50.6739 105.626 49.7309C106.316 48.8733 106.658 47.788 106.586 46.6899C106.648 46.0562 106.562 45.417 106.337 44.8216C106.111 44.2263 105.752 43.6908 105.286 43.2569C104.158 42.447 102.777 42.0668 101.393 42.1849H91.418L91.415 54.8739ZM100.338 48.6039H95.401V44.8779H100.371C100.723 44.8292 101.082 44.8703 101.414 44.9974C101.747 45.1245 102.041 45.3334 102.271 45.6049C102.48 45.9518 102.578 46.3538 102.553 46.7579C102.572 47.133 102.491 47.5063 102.318 47.8399C102.081 48.1257 101.774 48.3458 101.427 48.4789C101.081 48.612 100.706 48.6537 100.338 48.5999V48.6039ZM95.901 48.1039H100.338C101.158 48.1039 101.666 47.9329 101.891 47.5809C102.015 47.325 102.071 47.0416 102.054 46.7579C102.076 46.4599 102.011 46.162 101.868 45.8999L101.862 45.8909C101.624 45.5409 101.151 45.3779 100.371 45.3779H95.901V48.1039ZM116.218 55.5759C111.728 55.5759 109.048 54.4609 108.027 52.1679C107.86 51.725 107.747 51.2637 107.689 50.7939L107.645 50.5059H112.987L113.022 50.7159C113.063 50.9291 113.154 51.1298 113.286 51.3019C113.497 51.5569 114.201 51.9849 116.537 51.9849C119.345 51.9849 119.345 51.4919 119.345 51.2269C119.345 50.7799 119.02 50.6269 116.73 50.3829L116.295 50.3419C115.433 50.2609 114.343 50.1579 113.845 50.1149C109.645 49.7349 107.77 48.4299 107.77 45.8849C107.77 43.2119 110.961 41.4849 115.9 41.4849C119.929 41.4849 122.525 42.5469 123.614 44.6439C123.872 45.1316 124.046 45.6599 124.127 46.2059L124.162 46.4869H118.814L118.792 46.2609C118.771 46.0842 118.696 45.9185 118.576 45.7869C118.376 45.5189 117.744 45.0759 115.782 45.0759C113.373 45.0759 113.041 45.3839 113.041 45.7159C113.041 46.1589 113.802 46.3159 116.241 46.5769C117.258 46.6599 118.893 46.8279 119.453 46.8959C122.974 47.2779 124.545 48.5509 124.545 51.0249C124.546 53.0999 123.101 55.5759 116.218 55.5759ZM108.229 51.0059C108.279 51.3356 108.365 51.6589 108.486 51.9699C109.416 54.0589 111.946 55.0759 116.218 55.0759C119.79 55.0759 124.049 54.3759 124.049 51.0249C124.049 48.8319 122.659 47.7459 119.4 47.3929C118.84 47.3249 117.215 47.1579 116.2 47.0739C113.6 46.7919 112.543 46.6419 112.543 45.7159C112.543 44.7579 113.682 44.5759 115.784 44.5759C117.445 44.5759 118.518 44.8759 118.973 45.4809C119.097 45.6299 119.191 45.8018 119.249 45.9869H123.583C123.496 45.6001 123.358 45.2266 123.173 44.8759C122.173 42.9569 119.73 41.9849 115.902 41.9849C111.267 41.9849 108.272 43.5159 108.272 45.8849C108.272 48.1449 109.953 49.2609 113.891 49.6169C114.391 49.6599 115.48 49.7629 116.344 49.8449L116.782 49.8859C118.909 50.1099 119.847 50.2499 119.847 51.2269C119.847 52.2789 118.634 52.4849 116.539 52.4849C114.601 52.4849 113.377 52.1939 112.904 51.6209C112.758 51.4381 112.648 51.2295 112.58 51.0059H108.229ZM134.045 55.5589C128.825 55.5589 125.945 53.4479 125.945 49.6139V41.6859H130.997V49.6139C130.997 50.9289 132.174 51.6829 134.225 51.6829C136.185 51.6829 137.402 50.8959 137.402 49.6309V41.6859H142.402V50.0339C142.407 53.5449 139.358 55.5589 134.042 55.5589H134.045ZM126.445 42.1859V49.6139C126.445 54.3519 131.203 55.0589 134.045 55.0589C136.983 55.0589 141.91 54.4059 141.91 50.0339V42.1859H137.91V49.6309C137.91 51.1809 136.466 52.1829 134.233 52.1829C131.899 52.1829 130.505 51.2229 130.505 49.6139V42.1859H126.445ZM163.59 55.3739H158.822V49.1939L156.118 55.3739H151.959L149.283 49.2059V55.3739H144.498V41.6859H150.792L154.062 49.2329L157.49 41.6859H163.596L163.59 55.3739ZM159.322 54.8739H163.09V42.1859H157.808L154.046 50.4649L150.46 42.1859H144.994V54.8739H148.779V46.7999L152.279 54.8769H155.779L159.316 46.8119L159.322 54.8739ZM19.172 41.9359H14.618V55.1239H27.202V51.6129H19.172V41.9359ZM36.394 41.6359C30.581 41.6359 27.524 44.3909 27.524 48.4359C27.524 53.0059 30.733 55.3239 36.394 55.3239C42.626 55.3239 45.247 52.6359 45.247 48.4359C45.247 44.1709 42.29 41.6339 36.394 41.6339V41.6359ZM36.377 45.0629C36.7728 45.061 37.1682 45.084 37.561 45.1319L32.47 50.2229C32.2291 49.6779 32.1116 49.0865 32.126 48.4909C32.126 46.4219 33.168 45.0609 36.377 45.0609V45.0629ZM36.394 51.9509C36.0128 51.9525 35.6317 51.9312 35.253 51.8869L40.353 46.7869C40.585 47.3228 40.696 47.9032 40.678 48.4869C40.678 50.4999 39.718 51.9489 36.394 51.9489V51.9509ZM54.27 50.1509H58.957C58.8881 50.4761 58.7443 50.7809 58.537 51.0409C57.5654 51.8325 56.3252 52.2177 55.076 52.1159C54.4473 52.1831 53.8114 52.1145 53.2115 51.9145C52.6116 51.7145 52.0617 51.3879 51.599 50.9569C51.1252 50.2618 50.9 49.427 50.96 48.5879C50.8834 47.7086 51.1282 46.8314 51.649 46.1189C52.304 45.3789 53.413 45.0599 55.043 45.0599C56.0802 44.974 57.116 45.2403 57.983 45.8159C58.2563 46.0329 58.4606 46.3248 58.571 46.6559H62.918C62.8864 46.1103 62.7553 45.5752 62.531 45.0769C61.49 42.9599 59.07 41.6999 54.955 41.6999C51.376 41.6999 48.974 42.7919 47.647 44.4389C46.7706 45.6282 46.3207 47.0783 46.37 48.5549C46.3134 50.0648 46.7516 51.5519 47.618 52.7899C48.929 54.4899 51.264 55.3259 54.07 55.3259C55.9356 55.456 57.7883 54.9335 59.311 53.8479L59.429 55.1239H63.04V47.3119H54.27V50.1509ZM73.289 41.6329C67.477 41.6329 64.419 44.3879 64.419 48.4329C64.419 53.0029 67.627 55.3209 73.289 55.3209C79.522 55.3209 82.143 52.6329 82.143 48.4329C82.143 44.1709 79.186 41.6339 73.289 41.6339V41.6329ZM73.273 45.0599C73.6583 45.0587 74.0434 45.0808 74.426 45.1259L69.355 50.1999C69.1217 49.661 69.008 49.0779 69.022 48.4909C69.018 46.4219 70.064 45.0609 73.273 45.0609V45.0599ZM73.289 51.9479C72.8977 51.9495 72.5066 51.9268 72.118 51.8799L77.235 46.7619C77.4757 47.3049 77.5909 47.8952 77.572 48.4889C77.574 50.4999 76.618 51.9489 73.289 51.9489V51.9479Z" fill="#121212"></path></svg>