<svg xmlns="http://www.w3.org/2000/svg" width="179" height="100" viewBox="0 0 179 100" fill="none"><path d="M54.508 45.71C54.868 45.71 54.988 45.84 54.988 46.19V54.11H59.058C59.408 54.11 59.538 54.24 59.538 54.59V55.29C59.538 55.64 59.408 55.77 59.058 55.77H53.698C53.348 55.77 53.208 55.64 53.208 55.29V46.19C53.208 45.84 53.348 45.71 53.698 45.71H54.508Z" fill="#121212"></path><path d="M63.088 49.2C63.088 46.89 64.548 45.5 67.088 45.5C69.628 45.5 71.088 46.89 71.088 49.2V52.28C71.088 54.59 69.618 55.98 67.088 55.98C64.558 55.98 63.088 54.59 63.088 52.28V49.2ZM69.408 49.2C69.408 47.9 68.598 47.2 67.138 47.2C65.678 47.2 64.878 47.91 64.878 49.2V52.3C64.878 53.61 65.678 54.3 67.138 54.3C68.598 54.3 69.408 53.58 69.408 52.3V49.2Z" fill="#121212"></path><path d="M82.998 50.26C83.388 50.26 83.478 50.39 83.478 50.74V52.64C83.4886 53.0875 83.3989 53.5317 83.2154 53.9401C83.032 54.3485 82.7595 54.7106 82.418 55C81.5697 55.6755 80.5001 56.0106 79.418 55.94C76.828 55.94 75.418 54.55 75.418 52.24V49.14C75.418 46.86 76.878 45.46 79.418 45.46C81.418 45.46 82.718 46.25 83.268 47.83C83.2987 47.8893 83.3152 47.9551 83.3161 48.0219C83.3171 48.0888 83.3024 48.1549 83.2733 48.2151C83.2441 48.2753 83.2014 48.3279 83.1484 48.3686C83.0954 48.4094 83.0336 48.4372 82.968 48.45L82.188 48.72C81.848 48.84 81.708 48.77 81.588 48.42C81.4223 47.9928 81.119 47.6331 80.726 47.3977C80.333 47.1622 79.8727 47.0645 79.418 47.12C77.948 47.12 77.148 47.83 77.148 49.12V52.3C77.148 53.61 77.958 54.3 79.418 54.3C80.878 54.3 81.778 53.63 81.778 52.65V51.91H79.608C79.248 51.91 79.118 51.77 79.118 51.42V50.74C79.118 50.39 79.248 50.26 79.608 50.26H82.998Z" fill="#121212"></path><path d="M87.6079 49.2C87.6079 46.89 89.0679 45.5 91.6079 45.5C94.1479 45.5 95.6079 46.89 95.6079 49.2V52.28C95.6079 54.59 94.1379 55.98 91.6079 55.98C89.0779 55.98 87.6079 54.59 87.6079 52.28V49.2ZM93.9179 49.2C93.9179 47.9 93.1079 47.2 91.6579 47.2C90.2079 47.2 89.3879 47.91 89.3879 49.2V52.3C89.3879 53.61 90.1979 54.3 91.6579 54.3C93.1179 54.3 93.9179 53.58 93.9179 52.3V49.2Z" fill="#121212"></path><path d="M100.318 46C100.318 45.78 100.388 45.71 100.608 45.71H101.068C101.288 45.71 101.338 45.78 101.338 46V55.48C101.338 55.7 101.338 55.77 101.068 55.77H100.608C100.388 55.77 100.318 55.7 100.318 55.48V46Z" fill="#121212"></path><path d="M110.448 45.71C111.281 45.71 112.079 46.0408 112.668 46.6296C113.257 47.2185 113.588 48.0172 113.588 48.85C113.588 49.6827 113.257 50.4814 112.668 51.0703C112.079 51.6591 111.281 51.99 110.448 51.99H107.448V55.48C107.448 55.7 107.398 55.77 107.188 55.77H106.718C106.508 55.77 106.428 55.7 106.428 55.48V46C106.428 45.78 106.508 45.71 106.718 45.71H110.448ZM110.358 51C110.644 51 110.928 50.9436 111.192 50.834C111.457 50.7245 111.697 50.5639 111.899 50.3615C112.102 50.159 112.262 49.9187 112.372 49.6542C112.482 49.3897 112.538 49.1062 112.538 48.82C112.538 48.5337 112.482 48.2502 112.372 47.9857C112.262 47.7212 112.102 47.4809 111.899 47.2785C111.697 47.076 111.457 46.9155 111.192 46.8059C110.928 46.6963 110.644 46.64 110.358 46.64H107.358V51H110.358Z" fill="#121212"></path><path d="M121.398 45.5101C122.17 45.4249 122.949 45.591 123.619 45.9837C124.289 46.3764 124.815 46.9748 125.118 47.6901C125.198 47.8501 125.118 47.9801 124.958 48.0601L124.518 48.2601C124.338 48.3301 124.268 48.3201 124.158 48.1301C123.931 47.5993 123.542 47.1543 123.046 46.8594C122.55 46.5646 121.972 46.4353 121.398 46.4901C119.708 46.4901 118.788 47.1601 118.788 48.3601C118.778 48.7268 118.901 49.0847 119.135 49.3678C119.368 49.6508 119.696 49.8399 120.058 49.9001C120.596 50.0755 121.153 50.183 121.718 50.2201C122.401 50.2565 123.075 50.3947 123.718 50.6301C124.211 50.7859 124.635 51.1066 124.919 51.5382C125.203 51.9698 125.33 52.486 125.278 53.0001C125.278 54.8701 123.918 56.0001 121.418 56.0001C120.598 56.0939 119.771 55.9039 119.074 55.4617C118.377 55.0195 117.852 54.3519 117.588 53.5701C117.57 53.5344 117.561 53.4953 117.56 53.4556C117.559 53.4158 117.567 53.3763 117.583 53.34C117.6 53.3037 117.624 53.2715 117.654 53.2455C117.684 53.2196 117.72 53.2007 117.758 53.1901L118.198 53.0301C118.233 53.0159 118.27 53.0091 118.307 53.0101C118.345 53.0111 118.381 53.0199 118.415 53.0359C118.449 53.0519 118.479 53.0747 118.504 53.103C118.528 53.1312 118.547 53.1643 118.558 53.2001C118.782 53.765 119.179 54.244 119.694 54.5676C120.208 54.8913 120.812 55.0427 121.418 55.0001C123.308 55.0001 124.238 54.3401 124.238 53.0001C124.256 52.6478 124.148 52.3008 123.933 52.0206C123.719 51.7405 123.413 51.5454 123.068 51.4701C122.551 51.3157 122.017 51.2218 121.478 51.1901L120.398 51.0501C120.06 50.9783 119.726 50.8882 119.398 50.7801C119.074 50.6822 118.772 50.5226 118.508 50.3101C118.243 50.0699 118.034 49.7742 117.895 49.4441C117.757 49.1141 117.693 48.7576 117.708 48.4001C117.778 46.6501 119.088 45.5101 121.398 45.5101Z" fill="#121212"></path><path d="M130.668 52.35C130.71 53.0571 131.021 53.7214 131.537 54.2071C132.053 54.6928 132.734 54.9633 133.443 54.9633C134.151 54.9633 134.833 54.6928 135.349 54.2071C135.865 53.7214 136.175 53.0571 136.218 52.35V46C136.218 45.78 136.288 45.71 136.508 45.71H136.968C137.188 45.71 137.258 45.78 137.258 46V52.34C137.258 54.61 135.918 55.98 133.448 55.98C130.978 55.98 129.638 54.61 129.638 52.34V46C129.638 45.78 129.708 45.71 129.918 45.71H130.388C130.598 45.71 130.668 45.78 130.668 46V52.35Z" fill="#121212"></path><path d="M151.058 45.7102C151.278 45.7102 151.348 45.7802 151.348 46.0002V55.4802C151.348 55.7002 151.278 55.7702 151.058 55.7702H150.638C150.428 55.7702 150.358 55.7002 150.358 55.4802V49.7102C150.358 48.8707 150.415 48.0321 150.528 47.2002H150.468C150.155 47.9609 149.791 48.6993 149.378 49.4102L147.228 53.2002C147.202 53.266 147.156 53.3222 147.097 53.3615C147.038 53.4008 146.969 53.4212 146.898 53.4202H146.618C146.546 53.4206 146.476 53.3999 146.415 53.3609C146.355 53.3218 146.307 53.266 146.278 53.2002L144.098 49.3702C143.711 48.6695 143.376 47.9408 143.098 47.1902H143.038C143.14 48.0297 143.194 48.8745 143.198 49.7202V55.4802C143.198 55.7002 143.128 55.7702 142.908 55.7702H142.518C142.298 55.7702 142.228 55.7002 142.228 55.4802V46.0002C142.228 45.7802 142.298 45.7102 142.518 45.7102H142.878C142.96 45.7026 143.043 45.7206 143.114 45.7617C143.186 45.8029 143.243 45.8653 143.278 45.9402L146.778 52.1602L150.258 46.0002C150.368 45.7902 150.428 45.7602 150.648 45.7602L151.058 45.7102Z" fill="#121212"></path><path d="M36.7179 53.5498V60.7798C36.7179 61.0569 36.6078 61.3227 36.4118 61.5187C36.2159 61.7147 35.9501 61.8248 35.6729 61.8248C35.3958 61.8248 35.13 61.7147 34.934 61.5187C34.738 61.3227 34.6279 61.0569 34.6279 60.7798V53.5598C34.9189 53.7722 35.2677 53.8909 35.6279 53.8998C36.0206 53.911 36.4052 53.7875 36.7179 53.5498ZM45.6179 51.4598C45.3527 51.4598 45.0983 51.5651 44.9108 51.7527C44.7233 51.9402 44.6179 52.1945 44.6179 52.4598V53.7198C44.6179 53.9969 44.728 54.2627 44.924 54.4587C45.12 54.6547 45.3858 54.7648 45.6629 54.7648C45.9401 54.7648 46.2059 54.6547 46.4018 54.4587C46.5978 54.2627 46.7079 53.9969 46.7079 53.7198V52.5098C46.7157 52.3664 46.6925 52.223 46.6399 52.0894C46.5873 51.9557 46.5066 51.835 46.4032 51.7354C46.2997 51.6358 46.1761 51.5596 46.0406 51.512C45.9051 51.4644 45.7609 51.4466 45.6179 51.4598ZM32.3579 56.2898C31.9981 56.279 31.6497 56.1605 31.3579 55.9498V63.1998C31.3579 63.4782 31.4685 63.7453 31.6655 63.9422C31.8624 64.1391 32.1294 64.2498 32.4079 64.2498C32.6864 64.2498 32.9535 64.1391 33.1504 63.9422C33.3473 63.7453 33.4579 63.4782 33.4579 63.1998V55.9998C33.1314 56.2108 32.7461 56.3124 32.3579 56.2898ZM42.3579 49.2898C42.2225 49.283 42.087 49.3038 41.9599 49.351C41.8327 49.3983 41.7165 49.4708 41.6183 49.5644C41.52 49.6579 41.4419 49.7705 41.3885 49.8952C41.3352 50.0199 41.3077 50.1541 41.3079 50.2898V55.8598C41.3079 56.1382 41.4185 56.4053 41.6155 56.6022C41.8124 56.7991 42.0794 56.9098 42.3579 56.9098C42.6364 56.9098 42.9035 56.7991 43.1004 56.6022C43.2973 56.4053 43.4079 56.1382 43.4079 55.8598V50.3598C43.4159 50.2155 43.3925 50.0711 43.3393 49.9367C43.2861 49.8023 43.2045 49.681 43.0999 49.5812C42.9954 49.4814 42.8704 49.4055 42.7337 49.3586C42.597 49.3118 42.4517 49.2951 42.3079 49.3098L42.3579 49.2898ZM39.0379 51.4298C38.6613 51.4272 38.2946 51.3085 37.9879 51.0898V58.3598C37.9879 58.6382 38.0985 58.9053 38.2955 59.1022C38.4924 59.2991 38.7594 59.4098 39.0379 59.4098C39.3164 59.4098 39.5835 59.2991 39.7804 59.1022C39.9773 58.9053 40.0879 58.6382 40.0879 58.3598V51.0998C39.7707 51.3361 39.3834 51.4593 38.9879 51.4498L39.0379 51.4298ZM30.0879 56.9998V36.6898C30.0853 36.4422 29.9851 36.2057 29.8091 36.0315C29.6331 35.8574 29.3955 35.7598 29.1479 35.7598H28.9279C28.6803 35.7598 28.4427 35.8574 28.2667 36.0315C28.0907 36.2057 27.9905 36.4422 27.9879 36.6898V56.9998C27.9879 57.2491 28.087 57.4882 28.2632 57.6644C28.4395 57.8407 28.6786 57.9398 28.9279 57.9398H29.1479C29.3972 57.9398 29.6363 57.8407 29.8126 57.6644C29.9889 57.4882 30.0879 57.2491 30.0879 56.9998ZM32.4679 55.5198H32.2479C31.9986 55.5198 31.7595 55.4207 31.5832 55.2444C31.407 55.0682 31.3079 54.8291 31.3079 54.5798V39.1098C31.3106 38.8622 31.4107 38.6257 31.5867 38.4515C31.7627 38.2774 32.0003 38.1798 32.2479 38.1798H32.4679C32.7155 38.1798 32.9531 38.2774 33.1291 38.4515C33.3051 38.6257 33.4053 38.8622 33.4079 39.1098V54.5998C33.4079 54.8491 33.3089 55.0882 33.1326 55.2644C32.9563 55.4407 32.7172 55.5398 32.4679 55.5398V55.5198ZM35.7779 53.1398H35.5479C35.3013 53.1398 35.0647 53.0418 34.8903 52.8674C34.7159 52.693 34.6179 52.4564 34.6179 52.2098V41.5098C34.6166 41.3868 34.6397 41.2648 34.6858 41.1508C34.732 41.0368 34.8003 40.9331 34.8867 40.8457C34.9732 40.7583 35.0762 40.6889 35.1897 40.6415C35.3032 40.5941 35.4249 40.5698 35.5479 40.5698H35.7779C36.0255 40.5724 36.262 40.6726 36.4361 40.8486C36.6103 41.0246 36.7079 41.2622 36.7079 41.5098V52.2098C36.7079 52.4564 36.6099 52.693 36.4355 52.8674C36.2611 53.0418 36.0246 53.1398 35.7779 53.1398ZM39.0879 50.6898H38.8779C38.6303 50.6898 38.3927 50.5921 38.2167 50.418C38.0407 50.2439 37.9405 50.0073 37.9379 49.7598V43.9998C37.9297 43.8714 37.9479 43.7427 37.9915 43.6216C38.035 43.5005 38.103 43.3897 38.1911 43.296C38.2792 43.2022 38.3856 43.1275 38.5038 43.0766C38.6219 43.0257 38.7493 42.9995 38.8779 42.9998H39.0979C39.3472 42.9998 39.5863 43.0988 39.7626 43.2751C39.9389 43.4514 40.0379 43.6905 40.0379 43.9398V49.7398C40.0392 49.8641 40.0159 49.9874 39.9693 50.1026C39.9226 50.2178 39.8536 50.3226 39.7662 50.4109C39.6787 50.4993 39.5747 50.5694 39.46 50.6173C39.3453 50.6651 39.2222 50.6898 39.0979 50.6898H39.0879ZM42.4079 48.5398H42.1879C41.9386 48.5398 41.6995 48.4407 41.5232 48.2644C41.347 48.0882 41.2479 47.8491 41.2479 47.5998V46.1098C41.2506 45.8622 41.3507 45.6257 41.5267 45.4515C41.7027 45.2774 41.9403 45.1798 42.1879 45.1798H42.4079C42.6555 45.1798 42.8931 45.2774 43.0691 45.4515C43.2451 45.6257 43.3453 45.8622 43.3479 46.1098V47.5998C43.3479 47.8473 43.2503 48.0849 43.0761 48.2609C42.902 48.4369 42.6655 48.5371 42.4179 48.5398H42.4079Z" fill="#121212"></path></svg>