<svg xmlns="http://www.w3.org/2000/svg" width="179" height="100" viewBox="0 0 179 100" fill="none"><path d="M46.568 41.3898H48.568V55.3098H54.568V57.3098H46.568V41.3898ZM60.798 41.3898C61.9847 41.3898 63.1447 41.7417 64.1314 42.401C65.1181 43.0602 65.8871 43.9973 66.3413 45.0937C66.7954 46.19 66.9142 47.3964 66.6827 48.5603C66.4512 49.7242 65.8798 50.7933 65.0406 51.6324C64.2015 52.4715 63.1324 53.043 61.9685 53.2745C60.8047 53.506 59.5982 53.3872 58.5019 52.933C57.4055 52.4789 56.4685 51.7099 55.8092 50.7232C55.1499 49.7365 54.798 48.5765 54.798 47.3898C54.798 46.6018 54.9532 45.8216 55.2547 45.0937C55.5562 44.3657 55.9982 43.7043 56.5554 43.1471C57.1125 42.59 57.7739 42.148 58.5019 41.8465C59.2298 41.545 60.0101 41.3898 60.798 41.3898ZM60.798 51.3898C61.5891 51.3898 62.3625 51.1552 63.0203 50.7156C63.6781 50.2761 64.1908 49.6514 64.4935 48.9205C64.7963 48.1896 64.8755 47.3853 64.7211 46.6094C64.5668 45.8335 64.1858 45.1208 63.6264 44.5613C63.067 44.0019 62.3543 43.621 61.5784 43.4666C60.8024 43.3123 59.9982 43.3915 59.2673 43.6942C58.5364 43.997 57.9116 44.5097 57.4721 45.1675C57.0326 45.8253 56.798 46.5986 56.798 47.3898C56.8033 48.4472 57.227 49.4594 57.9766 50.2053C58.7262 50.9511 59.7406 51.3698 60.798 51.3698V51.3898ZM56.798 55.3298H64.798V57.3298H56.798V55.3298ZM82.398 57.3298H80.398V55.8998C79.1082 56.8026 77.5724 57.2878 75.998 57.2898C74.6555 57.2988 73.3323 56.9697 72.1504 56.333C70.9684 55.6963 69.9657 54.7724 69.2347 53.6464C68.5036 52.5204 68.0676 51.2285 67.967 49.8897C67.8663 48.551 68.1042 47.2084 68.6587 45.9857C69.2132 44.7631 70.0665 43.6996 71.1399 42.8933C72.2134 42.0871 73.4725 41.5639 74.8012 41.3721C76.13 41.1802 77.4857 41.3258 78.7433 41.7955C80.001 42.2652 81.1203 43.0439 81.998 44.0598L80.528 45.3698C79.8604 44.6234 79.0167 44.056 78.0736 43.7192C77.1306 43.3825 76.1183 43.2871 75.129 43.4418C74.1396 43.5965 73.2048 43.9963 72.4095 44.6049C71.6143 45.2134 70.984 46.0113 70.5762 46.9258C70.1683 47.8404 69.9958 48.8424 70.0744 49.8407C70.153 50.8389 70.4801 51.8017 71.0261 52.6411C71.5721 53.4805 72.3194 54.1699 73.2001 54.6466C74.0807 55.1232 75.0666 55.3718 76.068 55.3698C76.899 55.3715 77.7206 55.1937 78.4766 54.8485C79.2325 54.5033 79.905 53.9989 80.448 53.3698H75.048V51.3698H82.418L82.398 57.3298ZM89.758 41.4298C90.9447 41.4298 92.1047 41.7817 93.0914 42.4409C94.0781 43.1002 94.8471 44.0373 95.3013 45.1337C95.7554 46.23 95.8742 47.4364 95.6427 48.6003C95.4112 49.7642 94.8398 50.8333 94.0006 51.6724C93.1615 52.5115 92.0924 53.083 90.9285 53.3145C89.7647 53.546 88.5583 53.4272 87.4619 52.973C86.3655 52.5189 85.4285 51.7499 84.7692 50.7632C84.1099 49.7765 83.758 48.6165 83.758 47.4298C83.7527 46.6368 83.9047 45.8506 84.2051 45.1167C84.5055 44.3829 84.9484 43.7158 85.5082 43.1541C86.068 42.5925 86.7336 42.1474 87.4665 41.8445C88.1994 41.5417 88.985 41.3871 89.778 41.3898L89.758 41.4298ZM89.758 51.4298C90.5491 51.4298 91.3225 51.1952 91.9803 50.7556C92.6381 50.3161 93.1508 49.6914 93.4535 48.9605C93.7563 48.2296 93.8355 47.4253 93.6811 46.6494C93.5268 45.8735 93.1458 45.1608 92.5864 44.6013C92.027 44.0419 91.3143 43.661 90.5384 43.5066C89.7624 43.3523 88.9582 43.4315 88.2273 43.7342C87.4964 44.037 86.8716 44.5497 86.4321 45.2075C85.9926 45.8653 85.758 46.6386 85.758 47.4298C85.7738 48.4837 86.2049 49.4887 86.9577 50.2265C87.7104 50.9643 88.724 51.3752 89.778 51.3698L89.758 51.4298ZM85.758 55.3698H93.758V57.3698H85.758V55.3698ZM97.888 41.3898H99.888V57.2898H97.888V41.3898ZM102.658 41.3898H104.658C104.761 41.3788 104.865 41.3788 104.968 41.3898C105.806 41.2989 106.653 41.3855 107.455 41.6438C108.257 41.9021 108.995 42.3265 109.622 42.8892C110.25 43.4519 110.751 44.1404 111.094 44.9098C111.438 45.6792 111.615 46.5122 111.615 47.3548C111.615 48.1973 111.438 49.0304 111.094 49.7998C110.751 50.5692 110.25 51.2576 109.622 51.8203C108.995 52.3831 108.257 52.8074 107.455 53.0657C106.653 53.3241 105.806 53.4106 104.968 53.3198H104.658V57.3198H102.658V41.3898ZM104.658 43.3898V51.2998H104.968C105.533 51.375 106.107 51.3286 106.653 51.1638C107.198 50.999 107.702 50.7195 108.131 50.3441C108.56 49.9687 108.903 49.5059 109.139 48.9869C109.374 48.4679 109.496 47.9046 109.496 47.3348C109.496 46.7649 109.374 46.2016 109.139 45.6826C108.903 45.1636 108.56 44.7009 108.131 44.3255C107.702 43.95 107.198 43.6705 106.653 43.5057C106.107 43.3409 105.533 43.2945 104.968 43.3698C104.859 43.3811 104.752 43.4046 104.648 43.4398L104.658 43.3898ZM119.068 42.5398L117.588 43.7098C117.333 43.443 117.006 43.2546 116.648 43.1668C116.289 43.079 115.913 43.0954 115.563 43.214C115.213 43.3327 114.905 43.5487 114.674 43.8367C114.442 44.1247 114.298 44.4727 114.258 44.8398V44.9998C114.258 45.8798 114.868 46.4698 116.058 46.5498C120.638 46.8298 122.738 48.9798 122.738 51.8198V51.9998C122.62 53.1238 122.181 54.1902 121.474 55.0722C120.768 55.9541 119.822 56.6145 118.751 56.9748C117.68 57.335 116.527 57.38 115.431 57.1043C114.335 56.8287 113.341 56.244 112.568 55.4198L114.098 54.2398C114.454 54.6214 114.889 54.9211 115.373 55.1179C115.856 55.3148 116.377 55.4041 116.898 55.3798C117.861 55.4305 118.807 55.1073 119.537 54.4774C120.268 53.8476 120.726 52.9599 120.818 51.9998V51.8598C120.818 49.1898 118.198 48.6998 115.928 48.4798C113.828 48.2798 112.318 46.9698 112.318 45.0798V44.9998C112.392 44.0158 112.841 43.0978 113.572 42.4353C114.304 41.7729 115.262 41.4165 116.248 41.4398C116.771 41.4243 117.291 41.5187 117.775 41.7168C118.259 41.9149 118.696 42.2123 119.058 42.5898L119.068 42.5398ZM130.568 55.2598C133.058 55.2598 135.028 52.5698 135.028 49.2598V41.2598H137.028V49.2598C137.028 53.6598 134.148 57.2098 130.608 57.2098C127.068 57.2098 124.188 53.6598 124.188 49.2598V41.2598H126.188V49.2598C126.108 52.6198 128.078 55.3098 130.558 55.3098L130.568 55.2598ZM152.378 57.2598H150.378V47.3598L145.768 53.3598L141.158 47.3598V57.2898H139.158V41.3898L145.758 50.0798L152.358 41.3898L152.378 57.2598Z" fill="#121212"></path><path d="M36.968 39.0001C36.968 37.5573 36.3949 36.1736 35.3747 35.1534C34.3545 34.1332 32.9708 33.5601 31.528 33.5601C30.0852 33.5601 28.7016 34.1332 27.6814 35.1534C26.6612 36.1736 26.088 37.5573 26.088 39.0001V55.4501L30.568 58.6601V66.4801H32.488V58.6601L36.968 55.4501V39.0001ZM35.048 48.2001L32.488 50.7601V48.3601L35.048 45.8001V48.2001ZM28.048 45.8001L30.608 48.3601V50.7601L28.048 48.2001V45.8001ZM35.048 43.0801L31.528 46.6001L28.008 43.0001V40.6001L31.528 44.1201L35.048 40.6001V43.0801ZM31.528 35.4801C32.3022 35.4835 33.0538 35.7406 33.6679 36.212C34.282 36.6834 34.7246 37.3431 34.928 38.0901L31.528 41.4801L28.128 38.0901C28.324 37.3357 28.7634 36.667 29.3781 36.1879C29.9929 35.7087 30.7486 35.4459 31.528 35.4401V35.4801ZM28.008 54.4801V50.8801L30.568 53.4401V56.3001L28.008 54.4801ZM32.488 56.3101V53.4401L35.048 50.8801V54.4701L32.488 56.3101Z" fill="#121212"></path></svg>