<svg xmlns="http://www.w3.org/2000/svg" width="178" height="100" viewBox="0 0 178 100" fill="none"><path d="M31.941 62.8248H57.591V37.1748H31.941V62.8248ZM52.654 47.5318H47.234V42.1118H52.654V47.5318ZM36.877 42.1118H42.3V52.4678H52.654V57.8878H36.877V42.1118ZM74.294 37.1748C71.7575 37.1748 69.2779 37.927 67.1688 39.3362C65.0598 40.7454 63.416 42.7484 62.4453 45.0919C61.4746 47.4354 61.2206 50.014 61.7155 52.5018C62.2103 54.9896 63.4318 57.2748 65.2254 59.0685C67.019 60.8621 69.3042 62.0835 71.792 62.5784C74.2798 63.0732 76.8585 62.8193 79.202 61.8486C81.5454 60.8779 83.5484 59.2341 84.9576 57.125C86.3669 55.0159 87.119 52.5364 87.119 49.9998C87.1151 46.5996 85.7626 43.3398 83.3583 40.9355C80.954 38.5313 77.6942 37.1788 74.294 37.1748ZM74.294 57.8878C72.7339 57.8878 71.2089 57.4252 69.9117 56.5584C68.6145 55.6917 67.6035 54.4598 67.0065 53.0184C66.4095 51.5771 66.2532 49.9911 66.5576 48.4609C66.862 46.9308 67.6132 45.5253 68.7164 44.4221C69.8195 43.319 71.225 42.5677 72.7552 42.2634C74.2853 41.959 75.8713 42.1152 77.3126 42.7122C78.754 43.3093 79.9859 44.3203 80.8527 45.6175C81.7194 46.9146 82.182 48.4397 82.182 49.9998C82.1789 52.0909 81.3468 54.0954 79.8682 55.574C78.3896 57.0526 76.3851 57.8846 74.294 57.8878ZM133.013 37.1748C130.476 37.1746 127.997 37.9266 125.888 39.3357C123.778 40.7448 122.134 42.7478 121.164 45.0912C120.193 47.4346 119.939 50.0134 120.433 52.5012C120.928 54.9891 122.149 57.2744 123.943 59.0681C125.737 60.8618 128.022 62.0834 130.51 62.5783C132.997 63.0732 135.576 62.8193 137.92 61.8487C140.263 60.878 142.266 59.2342 143.676 57.1251C145.085 55.016 145.837 52.5364 145.837 49.9998C145.833 46.5998 144.481 43.3402 142.077 40.9359C139.673 38.5316 136.413 37.179 133.013 37.1748ZM133.013 57.8878C131.453 57.888 129.928 57.4256 128.63 56.5589C127.333 55.6923 126.322 54.4604 125.725 53.0191C125.128 51.5778 124.971 49.9917 125.275 48.4615C125.58 46.9314 126.331 45.5258 127.434 44.4225C128.537 43.3192 129.943 42.5679 131.473 42.2634C133.003 41.959 134.589 42.1152 136.03 42.7121C137.472 43.3091 138.704 44.3202 139.571 45.6174C140.437 46.9146 140.9 48.4397 140.9 49.9998C140.897 52.0907 140.065 54.095 138.587 55.5736C137.108 57.0522 135.104 57.8844 133.013 57.8878ZM103.653 37.1748C101.116 37.1748 98.6369 37.927 96.5278 39.3362C94.4188 40.7454 92.775 42.7484 91.8043 45.0919C90.8336 47.4354 90.5796 50.014 91.0745 52.5018C91.5693 54.9896 92.7908 57.2748 94.5844 59.0685C96.378 60.8621 98.6632 62.0835 101.151 62.5784C103.639 63.0732 106.217 62.8193 108.561 61.8486C110.904 60.8779 112.907 59.2341 114.317 57.125C115.726 55.0159 116.478 52.5364 116.478 49.9998C116.474 46.5996 115.122 43.3398 112.717 40.9355C110.313 38.5313 107.053 37.1788 103.653 37.1748ZM103.653 57.8878C102.2 57.8885 100.774 57.4876 99.534 56.7293C98.2939 55.971 97.2875 54.8849 96.6258 53.5907C95.9641 52.2965 95.6729 50.8446 95.7843 49.3954C95.8956 47.9461 96.4053 46.5558 97.257 45.3779C98.1087 44.2001 99.2692 43.2804 100.611 42.7205C101.952 42.1606 103.422 41.9822 104.858 42.205C106.295 42.4279 107.641 43.0432 108.75 43.9832C109.859 44.9232 110.686 46.1513 111.141 47.5318H103.653V52.4678H111.141C110.62 54.0431 109.617 55.4145 108.273 56.3873C106.928 57.3602 105.312 57.8852 103.653 57.8878Z" fill="#121212"></path></svg>