<svg xmlns="http://www.w3.org/2000/svg" width="179" height="100" viewBox="0 0 179 100" fill="none"><path d="M39.348 54.79H42.348V69.5H39.348V54.79Z" fill="#121212"></path><path d="M44.088 64.4599C44.086 63.4033 44.3975 62.3699 44.9831 61.4904C45.5687 60.6109 46.402 59.9249 47.3775 59.5192C48.3531 59.1135 49.4271 59.0063 50.4636 59.2113C51.5002 59.4162 52.4526 59.924 53.2004 60.6704C53.9482 61.4168 54.4578 62.3683 54.6647 63.4044C54.8715 64.4405 54.7664 65.5147 54.3625 66.4911C53.9586 67.4674 53.2742 68.302 52.3958 68.8892C51.5174 69.4764 50.4846 69.7899 49.428 69.7899C48.7254 69.7979 48.0282 69.6656 47.3774 69.4007C46.7265 69.1358 46.1351 68.7436 45.6377 68.2472C45.1404 67.7508 44.7472 67.1601 44.481 66.5098C44.2149 65.8594 44.0813 65.1625 44.088 64.4599ZM51.748 64.4599C51.7362 64.0038 51.5902 63.5612 51.3282 63.1877C51.0662 62.8141 50.6999 62.5261 50.275 62.3597C49.8502 62.1933 49.3858 62.1558 48.9397 62.252C48.4937 62.3482 48.086 62.5737 47.7675 62.9004C47.449 63.2272 47.2339 63.6405 47.1492 64.0889C47.0644 64.5372 47.1137 65.0006 47.2909 65.421C47.4682 65.8414 47.7654 66.2003 48.1455 66.4527C48.5257 66.705 48.9717 66.8397 49.428 66.8399C49.7402 66.8486 50.0508 66.7926 50.3402 66.6752C50.6296 66.5579 50.8916 66.3819 51.1096 66.1583C51.3276 65.9347 51.4968 65.6683 51.6067 65.376C51.7166 65.0836 51.7647 64.7717 51.748 64.4599Z" fill="#121212"></path><path d="M66.828 59.42V69C66.828 72.39 64.178 73.82 61.498 73.82C60.5556 73.8901 59.612 73.6995 58.7707 73.2691C57.9294 72.8387 57.2227 72.1852 56.728 71.38L59.308 69.89C59.5127 70.3026 59.8366 70.6443 60.2378 70.8708C60.639 71.0972 61.0989 71.198 61.558 71.16C61.8601 71.2103 62.1698 71.1906 62.463 71.1024C62.7563 71.0141 63.0254 70.8597 63.2496 70.651C63.4738 70.4423 63.647 70.1849 63.756 69.8986C63.8649 69.6124 63.9067 69.3049 63.878 69V68.07C63.5253 68.5039 63.0753 68.8486 62.5645 69.0762C62.0537 69.3038 61.4965 69.4079 60.938 69.38C59.5801 69.38 58.2778 68.8405 57.3176 67.8804C56.3574 66.9202 55.818 65.6179 55.818 64.26C55.818 62.9021 56.3574 61.5998 57.3176 60.6396C58.2778 59.6794 59.5801 59.14 60.938 59.14C61.4962 59.1145 62.0526 59.2196 62.563 59.447C63.0734 59.6745 63.5237 60.0179 63.878 60.45V59.45L66.828 59.42ZM63.878 64.26C63.8979 63.7736 63.772 63.2924 63.5163 62.8782C63.2606 62.464 62.8868 62.1358 62.4431 61.9357C61.9994 61.7356 61.506 61.6728 61.0262 61.7553C60.5465 61.8379 60.1025 62.062 59.7512 62.3989C59.3999 62.7358 59.1573 63.1701 59.0548 63.646C58.9523 64.1218 58.9944 64.6174 59.1758 65.0691C59.3571 65.5208 59.6695 65.908 60.0726 66.1808C60.4757 66.4536 60.9512 66.5996 61.438 66.6C61.7557 66.6225 62.0746 66.5781 62.3741 66.4698C62.6737 66.3615 62.9472 66.1917 63.1771 65.9712C63.407 65.7508 63.5881 65.4846 63.7088 65.1899C63.8295 64.8951 63.8872 64.5784 63.878 64.26Z" fill="#121212"></path><path d="M68.558 64.4599C68.556 63.4033 68.8675 62.3699 69.4531 61.4904C70.0386 60.6109 70.8719 59.9249 71.8475 59.5192C72.8231 59.1135 73.8971 59.0063 74.9336 59.2113C75.9701 59.4162 76.9226 59.924 77.6704 60.6704C78.4182 61.4168 78.9278 62.3683 79.1346 63.4044C79.3415 64.4405 79.2363 65.5147 78.8324 66.4911C78.4286 67.4674 77.7441 68.302 76.8658 68.8892C75.9874 69.4764 74.9546 69.7899 73.898 69.7899C73.1953 69.7979 72.4982 69.6656 71.8473 69.4007C71.1965 69.1358 70.6051 68.7436 70.1077 68.2472C69.6104 67.7508 69.2171 67.1601 68.951 66.5098C68.6849 65.8594 68.5513 65.1625 68.558 64.4599ZM76.218 64.4599C76.2062 64.0038 76.0602 63.5612 75.7982 63.1877C75.5362 62.8141 75.1698 62.5261 74.745 62.3597C74.3202 62.1933 73.8557 62.1558 73.4097 62.252C72.9637 62.3482 72.5559 62.5737 72.2375 62.9004C71.919 63.2272 71.7039 63.6405 71.6191 64.0889C71.5344 64.5372 71.5837 65.0006 71.7609 65.421C71.9381 65.8414 72.2354 66.2003 72.6155 66.4527C72.9956 66.705 73.4417 66.8397 73.898 66.8399C74.2085 66.8458 74.5169 66.7877 74.8039 66.6691C75.091 66.5506 75.3505 66.3741 75.5663 66.1508C75.7822 65.9275 75.9496 65.6621 76.0583 65.3711C76.167 65.0802 76.2145 64.77 76.198 64.4599H76.218Z" fill="#121212"></path><path d="M80.6279 56.7199C80.6279 56.3599 80.7347 56.0081 80.9347 55.7088C81.1346 55.4095 81.4189 55.1762 81.7514 55.0384C82.084 54.9007 82.4499 54.8646 82.803 54.9349C83.156 55.0051 83.4803 55.1784 83.7349 55.433C83.9894 55.6875 84.1627 56.0118 84.233 56.3648C84.3032 56.7179 84.2671 57.0838 84.1294 57.4164C83.9916 57.7489 83.7584 58.0332 83.4591 58.2332C83.1598 58.4332 82.8079 58.5399 82.4479 58.5399C81.966 58.5373 81.5046 58.3447 81.1639 58.0039C80.8231 57.6632 80.6306 57.2018 80.6279 56.7199ZM80.9379 59.4199H83.9379V69.4999H80.9379V59.4199Z" fill="#121212"></path><path d="M97.018 64.4601C97.0544 65.1265 96.9586 65.7934 96.7362 66.4225C96.5138 67.0517 96.1691 67.6306 95.722 68.126C95.275 68.6214 94.7343 69.0235 94.1312 69.3091C93.5282 69.5947 92.8745 69.7582 92.208 69.7901C91.6484 69.817 91.0898 69.7208 90.5714 69.5083C90.0531 69.2957 89.5877 68.9721 89.208 68.5601V73.5601H86.208V59.4201H89.208V60.3701C89.5877 59.9582 90.0531 59.6345 90.5714 59.422C91.0898 59.2095 91.6484 59.1133 92.208 59.1401C92.8737 59.1722 93.5264 59.3353 94.1288 59.6203C94.7312 59.9053 95.2714 60.3065 95.7183 60.8008C96.1653 61.2951 96.5102 61.8728 96.7332 62.5008C96.9562 63.1288 97.053 63.7947 97.018 64.4601ZM94.018 64.4601C94.0061 63.9908 93.8568 63.5352 93.5886 63.1499C93.3204 62.7645 92.9451 62.4663 92.5091 62.2922C92.0731 62.118 91.5956 62.0755 91.1357 62.17C90.6758 62.2646 90.2537 62.4919 89.9217 62.8239C89.5897 63.1558 89.3624 63.5779 89.2679 64.0378C89.1734 64.4977 89.2159 64.9752 89.39 65.4112C89.5642 65.8472 89.8624 66.2226 90.2477 66.4908C90.6331 66.759 91.0887 66.9083 91.558 66.9201C91.8856 66.941 92.2138 66.8914 92.5206 66.7749C92.8274 66.6584 93.1057 66.4775 93.3369 66.2445C93.568 66.0114 93.7466 65.7317 93.8606 65.4239C93.9747 65.1161 94.0215 64.7875 93.998 64.4601H94.018Z" fill="#121212"></path><path d="M106.358 66.48C106.358 68.8 104.358 69.79 102.158 69.79C101.279 69.8678 100.397 69.6808 99.6255 69.2531C98.8538 68.8254 98.2278 68.1765 97.828 67.39L100.448 65.9C100.554 66.2638 100.782 66.5802 101.093 66.7966C101.404 67.0131 101.78 67.1166 102.158 67.09C102.888 67.09 103.248 66.86 103.248 66.46C103.248 65.35 98.248 65.94 98.248 62.46C98.248 60.26 100.108 59.15 102.248 59.15C103.038 59.126 103.819 59.3136 104.512 59.6934C105.205 60.0732 105.784 60.6313 106.188 61.31L103.558 62.69C103.442 62.4259 103.251 62.2012 103.01 62.0432C102.769 61.8852 102.487 61.8007 102.198 61.8C101.678 61.8 101.358 62 101.358 62.37C101.398 63.52 106.358 62.75 106.358 66.48Z" fill="#121212"></path><path d="M117.398 59.4199V69.4999H114.398V68.5599C114.049 68.9776 113.606 69.3068 113.106 69.5205C112.605 69.7343 112.061 69.8266 111.518 69.7899C109.518 69.7899 107.748 68.3399 107.748 65.6099V59.4199H110.748V65.1699C110.722 65.415 110.75 65.6628 110.832 65.8954C110.913 66.1281 111.045 66.3397 111.218 66.5149C111.392 66.6902 111.602 66.8246 111.833 66.9085C112.065 66.9924 112.313 67.0236 112.558 66.9999C113.658 66.9999 114.428 66.3599 114.428 64.9299V59.4199H117.398Z" fill="#121212"></path><path d="M134.738 63.3202V69.5002H131.738V63.5802C131.738 62.5802 131.248 61.9202 130.288 61.9202C129.328 61.9202 128.708 62.6302 128.708 63.8202V69.5002H125.708V63.5802C125.708 62.5802 125.228 61.9202 124.258 61.9202C123.288 61.9202 122.688 62.6302 122.688 63.8202V69.5002H119.688V59.4202H122.688V60.3502C123.002 59.9395 123.413 59.6136 123.884 59.4023C124.356 59.191 124.873 59.1009 125.388 59.1402C125.905 59.1151 126.421 59.2244 126.883 59.4575C127.346 59.6905 127.74 60.0394 128.028 60.4702C128.363 60.0198 128.806 59.6616 129.317 59.429C129.827 59.1964 130.389 59.0971 130.948 59.1402C133.228 59.1402 134.738 60.8002 134.738 63.3202Z" fill="#121212"></path><path d="M137.298 59.3599C138.535 59.3599 139.538 58.357 139.538 57.1199C139.538 55.8828 138.535 54.8799 137.298 54.8799C136.061 54.8799 135.058 55.8828 135.058 57.1199C135.058 58.357 136.061 59.3599 137.298 59.3599Z" fill="#121212"></path><path d="M73.298 47.1602C79.0914 47.1602 83.788 42.4636 83.788 36.6702C83.788 30.8767 79.0914 26.1802 73.298 26.1802C67.5045 26.1802 62.808 30.8767 62.808 36.6702C62.808 42.4636 67.5045 47.1602 73.298 47.1602Z" fill="#121212"></path><path d="M96.7479 47.1602C102.541 47.1602 107.238 42.4636 107.238 36.6702C107.238 30.8767 102.541 26.1802 96.7479 26.1802C90.9545 26.1802 86.2579 30.8767 86.2579 36.6702C86.2579 42.4636 90.9545 47.1602 96.7479 47.1602Z" fill="#121212"></path><path d="M60.338 26.1802H39.368V47.1502H60.338V26.1802Z" fill="#121212"></path></svg>