<svg id="Layer_1" data-name="Layer 1" xmlns="http://www.w3.org/2000/svg" viewBox="0 0 341 367"><defs><style>.cls-1{fill:#fff;}.cls-2{fill:#ab8fe2;}.cls-2,.cls-3{stroke:#f2f2f2;stroke-width:3px;}.cls-2,.cls-3,.cls-5{stroke-miterlimit:10;}.cls-3,.cls-5{fill:none;}.cls-4{fill:#f2f2f2;}.cls-5{stroke:#000;}.cls-6{fill:#78e5e1;}</style></defs><title>Artboard 1</title><rect class="cls-1" x="47.5" width="237" height="367"/><circle class="cls-2" cx="86.81" cy="93.02" r="14.18"/><circle class="cls-2" cx="86.81" cy="141.82" r="14.18"/><circle class="cls-3" cx="86.81" cy="190.62" r="14.18"/><circle class="cls-3" cx="86.81" cy="239.41" r="14.18"/><circle class="cls-3" cx="86.81" cy="288.21" r="14.18"/><rect class="cls-4" x="72.62" y="29.85" width="168.01" height="16.63"/><rect class="cls-4" x="110.99" y="237.16" width="192.82" height="4.5"/><rect class="cls-4" x="110.99" y="285.95" width="192.82" height="4.5"/><rect class="cls-4" x="110.99" y="86.98" width="192.82" height="4.5"/><line class="cls-5" x1="111.58" y1="99.07" x2="254.55" y2="99.07"/><rect class="cls-4" x="110.99" y="135.78" width="192.82" height="4.5"/><line class="cls-5" x1="111.58" y1="147.86" x2="254.55" y2="147.86"/><rect class="cls-4" x="110.99" y="184.58" width="192.82" height="4.5"/><line class="cls-5" x1="111.58" y1="196.66" x2="254.55" y2="196.66"/><circle class="cls-6" cx="250.18" cy="333.84" r="22.57"/><path class="cls-1" d="M259.73,336h-7.34v7.39H248V336h-7.34v-4.41H248v-7.34h4.42v7.34h7.34Z"/></svg>