<?xml version="1.0" encoding="iso-8859-1"?>
<!-- Generator: Adobe Illustrator 16.0.0, SVG Export Plug-In . SVG Version: 6.00 Build 0)  -->
<!DOCTYPE svg PUBLIC "-//W3C//DTD SVG 1.1//EN" "http://www.w3.org/Graphics/SVG/1.1/DTD/svg11.dtd">
<svg version="1.1" id="Capa_1" xmlns="http://www.w3.org/2000/svg" xmlns:xlink="http://www.w3.org/1999/xlink" x="0px" y="0px"
	 width="568.481px" height="568.48px" viewBox="0 0 568.481 568.48" style="enable-background:new 0 0 568.481 568.48;"
	 xml:space="preserve">
<g>
	<g>
		<path d="M478.114,101.855l-0.067,51.705l-28.54-16.448l-8.18-14.168l-47.923,27.69l37.359-64.729l-48.858,29.036V57.69
			l-37.017,64.123V67.549h-16.246l-28.501-16.475L344.94,25.15V6.512l-52.864,30.591V0h-16.111v37.062L223.133,6.512l0.08,18.638
			l44.774,25.897l-28.522,16.502h-16.344v55.355l-37.378-64.74l0.719,56.833l-49.575-28.642l37.017,64.135l-46.996-27.124
			l-8.125,14.064l-28.528,16.423l-0.012-51.757l-16.145-9.29l0.034,61.102l-32.121-18.571l-8.079,13.957l32.105,18.531
			l-52.871,30.459l16.2,9.238l44.792-25.808l0.027,32.95l-8.179,14.155l47.922,27.69H39.203l49.562,27.784l-49.562,28.614h74.046
			l-46.993,27.124l8.106,14.076l-0.027,32.922l-44.838-25.832l-16.138,9.317l52.95,30.499l-32.146,18.568l8.06,13.957l32.112-18.544
			l-0.052,61.011l16.086-9.397l0.052-51.692l28.553,16.45l8.152,14.141l47.944-27.678l-37.365,64.74l48.859-29.033v57.228
			l37.023-64.106v54.274h16.246l28.47,16.476l-44.765,25.924v18.611l52.846-30.578v37.114h16.166v-37.062l52.773,30.523
			l-0.08-18.611l-44.746-25.899l28.519-16.5h16.325v-55.343l37.385,64.729l-0.704-56.831l49.562,28.614l-37.022-64.122
			l46.992,27.124l8.127-14.049l28.541-16.45l0.021,51.732l16.172,9.345l-0.086-61.102l32.173,18.567l8.058-13.969l-32.1-18.531
			l52.853-30.444l-16.19-9.266l-44.793,25.809l-0.021-32.95l8.152-14.155l-47.935-27.666h74.756l-49.591-27.785l49.591-28.641
			h-74.046l46.992-27.124l-8.112-14.049l0.034-32.925l44.804,25.833l16.154-9.318l-52.938-30.499l32.146-18.571l-8.054-13.957
			l-32.087,18.544l0.058-61.011L478.114,101.855z M255.802,109.184l28.37-16.87l28.048,16.87v66.255l-28.1-16.897l-28.317,16.897
			V109.184z M146.624,172.486l57.384,33.122l-28.688,15.881l0.475,32.99l-57.381-33.146l-0.44-33.018L146.624,172.486z
			 M146.857,396.374L118.02,380.27l0.639-32.739l57.372-33.134l-0.6,32.791l28.816,16.053L146.857,396.374z M312.666,459.297
			l-28.356,16.897l-28.054-16.897v-66.255l28.1,16.896l28.311-16.896V459.297z M347.826,302.704l3.09,20.046l-18.959,7.476
			l-31.986-18.479v36.852l-15.848,12.706l-15.961-12.706v-36.931l-31.903,18.399l-18.893-7.328l3.017-20.193l31.962-18.479
			l-31.904-18.4l-3.051-20.058l18.972-7.473l31.968,18.452v-36.836l15.842-12.693l15.948,12.693v36.971l31.916-18.427l18.914,7.356
			l-3.045,20.166l-31.952,18.479L347.826,302.704z M421.614,172.079l28.838,16.12l-0.634,32.739l-57.384,33.122l0.572-32.764
			l-28.779-16.08L421.614,172.079z M421.85,395.994l-57.378-33.121l28.693-15.882l-0.502-32.989l57.399,33.121l0.435,33.042
			L421.85,395.994z"/>
	</g>
</g>
<g>
</g>
<g>
</g>
<g>
</g>
<g>
</g>
<g>
</g>
<g>
</g>
<g>
</g>
<g>
</g>
<g>
</g>
<g>
</g>
<g>
</g>
<g>
</g>
<g>
</g>
<g>
</g>
<g>
</g>
</svg>
