<svg width="508" height="508" viewBox="0 0 508 508" fill="none" xmlns="http://www.w3.org/2000/svg">
<g filter="url(#filter0_d_2_26)">
<rect x="4" width="500" height="500" rx="41" fill="#08B1BA"/>
</g>
<g filter="url(#filter1_d_2_26)">
<path d="M90.1313 352V310.542H120.968V154.305H90.1313V112.847H203.883V154.305H173.047V310.542H203.883V352H90.1313Z" fill="white"/>
<path d="M267.652 355.622C259.04 355.622 251.377 354.236 244.662 351.462C237.947 348.543 232.327 344.528 227.802 339.419C223.277 334.164 219.847 327.815 217.511 320.37C215.176 312.926 214.008 304.605 214.008 295.409C214.008 286.213 215.176 277.966 217.511 270.667C219.847 263.223 223.277 256.873 227.802 251.618C232.327 246.363 237.947 242.349 244.662 239.575C251.377 236.802 259.04 235.415 267.652 235.415C279.33 235.415 289.037 238.043 296.774 243.298C304.656 248.553 310.276 255.924 313.633 265.412L287.358 276.798C286.337 272.419 284.22 268.697 281.009 265.631C277.797 262.566 273.345 261.033 267.652 261.033C261.084 261.033 256.121 263.223 252.763 267.602C249.406 271.835 247.727 277.601 247.727 284.899V306.357C247.727 313.656 249.406 319.421 252.763 323.655C256.121 327.888 261.084 330.004 267.652 330.004C273.491 330.004 278.089 328.472 281.447 325.406C284.95 322.195 287.504 318.035 289.11 312.926L314.29 323.874C310.495 334.821 304.583 342.85 296.555 347.959C288.672 353.068 279.038 355.622 267.652 355.622Z" fill="white"/>
<path d="M375.16 355.622C366.402 355.622 358.592 354.236 351.732 351.462C344.871 348.543 339.032 344.528 334.215 339.419C329.544 334.164 325.968 327.815 323.486 320.37C321.151 312.926 319.983 304.605 319.983 295.409C319.983 286.359 321.151 278.185 323.486 270.886C325.822 263.442 329.252 257.092 333.777 251.837C338.448 246.582 344.141 242.568 350.856 239.794C357.57 236.875 365.234 235.415 373.846 235.415C383.334 235.415 391.436 237.021 398.15 240.232C405.011 243.444 410.558 247.75 414.791 253.151C419.17 258.552 422.309 264.828 424.206 271.981C426.25 278.987 427.272 286.359 427.272 294.095V303.73H353.483V305.481C353.483 313.072 355.527 319.129 359.614 323.655C363.701 328.034 370.124 330.223 378.882 330.223C385.597 330.223 391.071 328.91 395.304 326.282C399.537 323.509 403.478 320.224 407.128 316.429L423.33 336.573C418.221 342.558 411.507 347.229 403.186 350.586C395.012 353.944 385.67 355.622 375.16 355.622ZM374.503 259.281C367.934 259.281 362.752 261.471 358.957 265.85C355.308 270.083 353.483 275.776 353.483 282.929V284.68H393.771V282.71C393.771 275.703 392.166 270.083 388.954 265.85C385.889 261.471 381.072 259.281 374.503 259.281Z" fill="white"/>
<path d="M259.426 425V375.813H270.137V415.487H288.882V425H259.426ZM323.847 425C321.967 425 320.394 424.413 319.125 423.238C317.904 422.064 317.129 420.49 316.8 418.517H316.377C315.813 420.913 314.568 422.745 312.642 424.013C310.716 425.235 308.344 425.846 305.525 425.846C301.814 425.846 298.971 424.859 296.998 422.886C295.025 420.913 294.039 418.306 294.039 415.064C294.039 411.165 295.448 408.276 298.267 406.396C301.132 404.47 305.008 403.507 309.894 403.507H315.743V401.182C315.743 399.397 315.273 397.987 314.333 396.954C313.394 395.873 311.82 395.333 309.612 395.333C307.545 395.333 305.901 395.779 304.679 396.672C303.458 397.564 302.448 398.574 301.649 399.702L295.448 394.205C296.951 391.997 298.83 390.283 301.085 389.061C303.387 387.793 306.488 387.159 310.387 387.159C315.649 387.159 319.595 388.31 322.226 390.612C324.857 392.914 326.172 396.273 326.172 400.689V416.896H329.625V425H323.847ZM309.401 418.587C311.139 418.587 312.619 418.212 313.84 417.46C315.108 416.708 315.743 415.487 315.743 413.796V409.427H310.669C306.582 409.427 304.538 410.812 304.538 413.584V414.641C304.538 416.004 304.961 417.014 305.807 417.671C306.652 418.282 307.85 418.587 309.401 418.587ZM336.625 425V388.004H347.054V394.276H347.477C348.135 392.35 349.286 390.682 350.93 389.273C352.574 387.863 354.853 387.159 357.765 387.159C361.571 387.159 364.436 388.427 366.362 390.964C368.336 393.501 369.322 397.118 369.322 401.816V425H358.893V402.662C358.893 400.266 358.517 398.504 357.765 397.377C357.014 396.202 355.675 395.615 353.749 395.615C352.903 395.615 352.081 395.732 351.282 395.967C350.484 396.155 349.755 396.484 349.098 396.954C348.487 397.423 347.994 398.011 347.618 398.715C347.242 399.373 347.054 400.148 347.054 401.041V425H336.625ZM401.294 418.799H400.941C400.66 419.785 400.213 420.725 399.602 421.618C398.992 422.463 398.24 423.215 397.348 423.873C396.502 424.483 395.515 424.953 394.388 425.282C393.307 425.658 392.18 425.846 391.005 425.846C386.308 425.846 382.761 424.201 380.365 420.913C377.969 417.577 376.771 412.762 376.771 406.467C376.771 400.172 377.969 395.38 380.365 392.091C382.761 388.803 386.308 387.159 391.005 387.159C393.401 387.159 395.515 387.816 397.348 389.132C399.227 390.447 400.425 392.138 400.941 394.205H401.294V372.854H411.723V425H401.294V418.799ZM394.458 417.389C396.431 417.389 398.052 416.92 399.321 415.98C400.636 414.994 401.294 413.655 401.294 411.963V401.041C401.294 399.35 400.636 398.034 399.321 397.095C398.052 396.108 396.431 395.615 394.458 395.615C392.485 395.615 390.841 396.319 389.526 397.729C388.257 399.091 387.623 400.947 387.623 403.296V409.708C387.623 412.057 388.257 413.937 389.526 415.346C390.841 416.708 392.485 417.389 394.458 417.389Z" fill="white"/>
</g>
<g filter="url(#filter2_i_2_26)">
<path d="M465.163 162.128L452.715 154.946L462.29 152.369C465.31 151.558 467.115 148.428 466.305 145.408L464.831 139.921C464.021 136.901 460.891 135.097 457.871 135.907L431.797 142.904L408.265 129.278L431.761 115.689L457.834 122.686C460.854 123.496 463.984 121.691 464.795 118.672L466.268 113.184C467.078 110.164 465.273 107.034 462.254 106.224L452.678 103.646L465.126 96.4647C467.851 94.8811 468.772 91.4194 467.225 88.6942L461.517 78.8244C459.933 76.0992 456.472 75.1785 453.746 76.7253L441.299 83.9066L443.877 74.3315C444.687 71.3117 442.882 68.1814 439.863 67.3712L434.375 65.8981C431.355 65.0879 428.225 66.8924 427.415 69.9122L420.418 95.986L397.29 109.317V80.7763L417.067 61C419.35 58.7168 419.35 54.9604 417.067 52.6771L412.905 48.5156C410.622 46.2323 406.865 46.2323 404.582 48.5156L397.29 55.7706V40.8924C397.29 37.6516 394.639 35 391.398 35H379.613C376.372 35 373.721 37.6516 373.721 40.8924V55.7706L366.466 48.5156C364.183 46.2323 360.426 46.2323 358.143 48.5156L353.945 52.6771C351.624 54.9604 351.624 58.7168 353.945 61L373.721 80.7763V109.317L350.593 95.986L343.596 69.9122C342.786 66.8924 339.656 65.0879 336.636 65.8981L331.149 67.3712C328.129 68.1814 326.324 71.3117 327.134 74.3315L329.712 83.9066L317.265 76.7253C314.539 75.1417 311.078 76.0992 309.494 78.8244L303.786 88.6573C302.202 91.3825 303.16 94.8443 305.885 96.4279L318.333 103.609L308.758 106.187C305.701 106.997 303.896 110.128 304.707 113.184L306.18 118.672C306.99 121.691 310.12 123.496 313.14 122.686L339.214 115.689L362.709 129.278L339.214 142.867L313.14 135.87C310.12 135.06 306.99 136.864 306.18 139.884L304.707 145.371C303.896 148.391 305.701 151.521 308.721 152.332L318.296 154.91L305.848 162.128C303.123 163.711 302.202 167.173 303.749 169.898L309.457 179.768C311.041 182.493 314.503 183.414 317.228 181.867L329.675 174.686L327.098 184.261C326.287 187.281 328.092 190.411 331.112 191.221L336.599 192.694C339.619 193.505 342.749 191.7 343.559 188.68L350.556 162.606L373.684 149.275V177.816L353.908 197.592C351.588 199.876 351.588 203.632 353.908 205.915L358.069 210.077C360.353 212.36 364.109 212.36 366.392 210.077L373.647 202.822V217.663C373.647 220.904 376.299 223.556 379.54 223.556H391.324C394.565 223.556 397.217 220.904 397.217 217.663V202.785L404.472 210.04C406.755 212.323 410.511 212.323 412.795 210.04L416.956 205.879C419.239 203.595 419.239 199.839 416.956 197.556L397.29 177.779V149.238L420.418 162.57L427.415 188.643C428.225 191.663 431.355 193.468 434.375 192.658L439.863 191.184C442.882 190.374 444.687 187.244 443.877 184.224L441.299 174.649L453.746 181.83C456.472 183.414 459.933 182.456 461.517 179.731L467.225 169.861C468.809 167.173 467.888 163.674 465.163 162.128V162.128Z" fill="#F0F0F0" fill-opacity="0.29"/>
</g>
<g filter="url(#filter3_i_2_26)">
<path d="M79.9855 460.458L75.5346 457.89L78.9584 456.968C80.0382 456.678 80.6835 455.559 80.3937 454.479L79.867 452.517C79.5773 451.437 78.458 450.792 77.3782 451.082L68.0548 453.584L59.6401 448.711L68.0417 443.852L77.365 446.354C78.4448 446.644 79.5641 445.999 79.8538 444.919L80.3806 442.957C80.6703 441.877 80.025 440.758 78.9452 440.468L75.5214 439.546L79.9724 436.978C80.9468 436.412 81.276 435.174 80.723 434.2L78.6818 430.671C78.1156 429.696 76.8777 429.367 75.9033 429.92L71.4523 432.488L72.3741 429.064C72.6638 427.984 72.0186 426.865 70.9387 426.575L68.9766 426.048C67.8968 425.759 66.7775 426.404 66.4878 427.484L63.9858 436.807L55.7159 441.574V431.368L62.7874 424.297C63.6039 423.481 63.6039 422.137 62.7874 421.321L61.2994 419.833C60.4829 419.016 59.1397 419.016 58.3233 419.833L55.7159 422.427V417.107C55.7159 415.948 54.7678 415 53.6089 415H49.395C48.2362 415 47.2881 415.948 47.2881 417.107V422.427L44.6938 419.833C43.8774 419.016 42.5342 419.016 41.7178 419.833L40.2165 421.321C39.3869 422.137 39.3869 423.481 40.2165 424.297L47.2881 431.368V441.574L39.0182 436.807L36.5162 427.484C36.2265 426.404 35.1072 425.759 34.0273 426.048L32.0652 426.575C30.9854 426.865 30.3401 427.984 30.6299 429.064L31.5517 432.488L27.1007 429.92C26.1262 429.354 24.8884 429.696 24.3221 430.671L22.281 434.187C21.7148 435.161 22.0571 436.399 23.0316 436.965L27.4826 439.533L24.0588 440.455C22.9658 440.744 22.3205 441.864 22.6102 442.957L23.137 444.919C23.4267 445.999 24.546 446.644 25.6258 446.354L34.9491 443.852L43.3507 448.711L34.9491 453.571L25.6258 451.069C24.546 450.779 23.4267 451.424 23.137 452.504L22.6102 454.466C22.3205 455.546 22.9658 456.665 24.0456 456.955L27.4694 457.877L23.0184 460.458C22.044 461.024 21.7148 462.262 22.2678 463.236L24.309 466.766C24.8752 467.74 26.113 468.069 27.0875 467.516L31.5385 464.948L30.6167 468.372C30.327 469.452 30.9722 470.571 32.0521 470.861L34.0142 471.388C35.094 471.677 36.2133 471.032 36.503 469.952L39.005 460.629L47.2749 455.862V466.068L40.2034 473.139C39.3738 473.956 39.3738 475.299 40.2034 476.115L41.6914 477.603C42.5079 478.42 43.8511 478.42 44.6675 477.603L47.2617 475.009V480.316C47.2617 481.475 48.2098 482.423 49.3687 482.423H53.5826C54.7414 482.423 55.6896 481.475 55.6896 480.316V474.996L58.2838 477.59C59.1002 478.407 60.4434 478.407 61.2599 477.59L62.7479 476.102C63.5644 475.286 63.5644 473.942 62.7479 473.126L55.7159 466.054V455.849L63.9858 460.616L66.4878 469.939C66.7775 471.019 67.8968 471.664 68.9766 471.375L70.9387 470.848C72.0186 470.558 72.6638 469.439 72.3741 468.359L71.4523 464.935L75.9033 467.503C76.8777 468.069 78.1156 467.727 78.6818 466.752L80.723 463.223C81.2892 462.262 80.96 461.011 79.9855 460.458V460.458Z" fill="#F0F0F0" fill-opacity="0.29"/>
</g>
<g filter="url(#filter4_i_2_26)">
<path d="M467.381 438.249L465.202 436.992L466.878 436.541C467.407 436.399 467.722 435.852 467.581 435.323L467.323 434.363C467.181 433.834 466.633 433.518 466.105 433.66L461.541 434.885L457.423 432.5L461.535 430.122L466.098 431.346C466.627 431.488 467.175 431.172 467.316 430.644L467.574 429.683C467.716 429.155 467.4 428.607 466.872 428.465L465.196 428.014L467.374 426.757C467.851 426.48 468.013 425.874 467.742 425.397L466.743 423.67C466.466 423.193 465.86 423.032 465.383 423.303L463.204 424.559L463.656 422.884C463.797 422.355 463.481 421.807 462.953 421.665L461.993 421.408C461.464 421.266 460.916 421.582 460.774 422.11L459.55 426.673L455.502 429.007V424.012L458.963 420.55C459.363 420.151 459.363 419.493 458.963 419.094L458.235 418.365C457.835 417.966 457.178 417.966 456.778 418.365L455.502 419.635V417.031C455.502 416.464 455.038 416 454.471 416H452.408C451.841 416 451.377 416.464 451.377 417.031V419.635L450.107 418.365C449.708 417.966 449.05 417.966 448.651 418.365L447.916 419.094C447.51 419.493 447.51 420.151 447.916 420.55L451.377 424.012V429.007L447.33 426.673L446.105 422.11C445.963 421.582 445.415 421.266 444.887 421.408L443.926 421.665C443.398 421.807 443.082 422.355 443.224 422.884L443.675 424.559L441.497 423.303C441.02 423.025 440.414 423.193 440.137 423.67L439.138 425.391C438.86 425.868 439.028 426.474 439.505 426.751L441.683 428.008L440.008 428.459C439.473 428.601 439.157 429.148 439.299 429.683L439.556 430.644C439.698 431.172 440.246 431.488 440.775 431.346L445.338 430.122L449.45 432.5L445.338 434.878L440.775 433.654C440.246 433.512 439.698 433.828 439.556 434.356L439.299 435.317C439.157 435.845 439.473 436.393 440.001 436.535L441.677 436.986L439.498 438.249C439.022 438.526 438.86 439.132 439.131 439.609L440.13 441.337C440.407 441.813 441.013 441.975 441.49 441.704L443.669 440.447L443.217 442.123C443.076 442.651 443.391 443.199 443.92 443.341L444.88 443.599C445.409 443.741 445.957 443.425 446.098 442.896L447.323 438.333L451.371 436V440.995L447.91 444.456C447.504 444.856 447.504 445.513 447.91 445.913L448.638 446.641C449.038 447.041 449.695 447.041 450.095 446.641L451.364 445.371V447.969C451.364 448.536 451.828 449 452.396 449H454.458C455.025 449 455.489 448.536 455.489 447.969V445.365L456.759 446.635C457.159 447.034 457.816 447.034 458.216 446.635L458.944 445.906C459.344 445.507 459.344 444.849 458.944 444.45L455.502 440.988V435.993L459.55 438.327L460.774 442.89C460.916 443.418 461.464 443.734 461.993 443.592L462.953 443.335C463.481 443.193 463.797 442.645 463.656 442.116L463.204 440.441L465.383 441.697C465.86 441.975 466.466 441.807 466.743 441.33L467.742 439.603C468.019 439.132 467.858 438.52 467.381 438.249V438.249Z" fill="#F0F0F0" fill-opacity="0.29"/>
</g>
<g filter="url(#filter5_i_2_26)">
<path d="M282.381 312.249L280.202 310.992L281.878 310.541C282.407 310.399 282.722 309.852 282.581 309.323L282.323 308.363C282.181 307.834 281.633 307.518 281.105 307.66L276.541 308.885L272.423 306.5L276.535 304.122L281.098 305.346C281.627 305.488 282.175 305.172 282.316 304.644L282.574 303.683C282.716 303.155 282.4 302.607 281.872 302.465L280.196 302.014L282.374 300.757C282.851 300.48 283.013 299.874 282.742 299.397L281.743 297.67C281.466 297.193 280.86 297.032 280.383 297.303L278.204 298.559L278.656 296.884C278.797 296.355 278.481 295.807 277.953 295.665L276.993 295.408C276.464 295.266 275.916 295.582 275.774 296.11L274.55 300.673L270.502 303.007V298.012L273.963 294.55C274.363 294.151 274.363 293.493 273.963 293.094L273.235 292.365C272.835 291.966 272.178 291.966 271.778 292.365L270.502 293.635V291.031C270.502 290.464 270.038 290 269.471 290H267.408C266.841 290 266.377 290.464 266.377 291.031V293.635L265.107 292.365C264.708 291.966 264.05 291.966 263.651 292.365L262.916 293.094C262.51 293.493 262.51 294.151 262.916 294.55L266.377 298.012V303.007L262.33 300.673L261.105 296.11C260.963 295.582 260.415 295.266 259.887 295.408L258.926 295.665C258.398 295.807 258.082 296.355 258.224 296.884L258.675 298.559L256.497 297.303C256.02 297.025 255.414 297.193 255.137 297.67L254.138 299.391C253.86 299.868 254.028 300.474 254.505 300.751L256.683 302.008L255.008 302.459C254.473 302.601 254.157 303.148 254.299 303.683L254.556 304.644C254.698 305.172 255.246 305.488 255.775 305.346L260.338 304.122L264.45 306.5L260.338 308.878L255.775 307.654C255.246 307.512 254.698 307.828 254.556 308.356L254.299 309.317C254.157 309.845 254.473 310.393 255.001 310.535L256.677 310.986L254.498 312.249C254.022 312.526 253.86 313.132 254.131 313.609L255.13 315.337C255.407 315.813 256.013 315.975 256.49 315.704L258.669 314.447L258.217 316.123C258.076 316.651 258.391 317.199 258.92 317.341L259.88 317.599C260.409 317.741 260.957 317.425 261.098 316.896L262.323 312.333L266.371 310V314.995L262.91 318.456C262.504 318.856 262.504 319.513 262.91 319.913L263.638 320.641C264.038 321.041 264.695 321.041 265.095 320.641L266.364 319.371V321.969C266.364 322.536 266.828 323 267.396 323H269.458C270.025 323 270.489 322.536 270.489 321.969V319.365L271.759 320.635C272.159 321.034 272.816 321.034 273.216 320.635L273.944 319.906C274.344 319.507 274.344 318.849 273.944 318.45L270.502 314.988V309.993L274.55 312.327L275.774 316.89C275.916 317.418 276.464 317.734 276.993 317.592L277.953 317.335C278.481 317.193 278.797 316.645 278.656 316.116L278.204 314.441L280.383 315.697C280.86 315.975 281.466 315.807 281.743 315.33L282.742 313.603C283.019 313.132 282.858 312.52 282.381 312.249V312.249Z" fill="#F0F0F0" fill-opacity="0.29"/>
</g>
<g filter="url(#filter6_i_2_26)">
<path d="M235.381 57.2492L233.202 55.9924L234.878 55.5412C235.407 55.3994 235.722 54.8516 235.581 54.323L235.323 53.3627C235.181 52.8342 234.633 52.5184 234.105 52.6602L229.541 53.8848L225.423 51.5L229.535 49.1217L234.098 50.3463C234.627 50.4881 235.175 50.1723 235.316 49.6437L235.574 48.6834C235.716 48.1549 235.4 47.607 234.872 47.4652L233.196 47.0141L235.374 45.7572C235.851 45.4801 236.013 44.8742 235.742 44.3973L234.743 42.6699C234.466 42.193 233.86 42.0318 233.383 42.3025L231.204 43.5594L231.656 41.8836C231.797 41.3551 231.481 40.8072 230.953 40.6654L229.993 40.4076C229.464 40.2658 228.916 40.5816 228.774 41.1102L227.55 45.6734L223.502 48.0066V43.0115L226.963 39.5504C227.363 39.1508 227.363 38.4934 226.963 38.0938L226.235 37.3654C225.835 36.9658 225.178 36.9658 224.778 37.3654L223.502 38.6352V36.0312C223.502 35.4641 223.038 35 222.471 35H220.408C219.841 35 219.377 35.4641 219.377 36.0312V38.6352L218.107 37.3654C217.708 36.9658 217.05 36.9658 216.651 37.3654L215.916 38.0938C215.51 38.4934 215.51 39.1508 215.916 39.5504L219.377 43.0115V48.0066L215.33 45.6734L214.105 41.1102C213.963 40.5816 213.415 40.2658 212.887 40.4076L211.926 40.6654C211.398 40.8072 211.082 41.3551 211.224 41.8836L211.675 43.5594L209.497 42.3025C209.02 42.0254 208.414 42.193 208.137 42.6699L207.138 44.3908C206.86 44.8678 207.028 45.4736 207.505 45.7508L209.683 47.0076L208.008 47.4588C207.473 47.6006 207.157 48.1484 207.299 48.6834L207.556 49.6437C207.698 50.1723 208.246 50.4881 208.775 50.3463L213.338 49.1217L217.45 51.5L213.338 53.8783L208.775 52.6537C208.246 52.5119 207.698 52.8277 207.556 53.3562L207.299 54.3166C207.157 54.8451 207.473 55.393 208.001 55.5348L209.677 55.9859L207.498 57.2492C207.022 57.5264 206.86 58.1322 207.131 58.6092L208.13 60.3365C208.407 60.8135 209.013 60.9746 209.49 60.7039L211.669 59.4471L211.217 61.1229C211.076 61.6514 211.391 62.1992 211.92 62.341L212.88 62.5988C213.409 62.7406 213.957 62.4248 214.098 61.8963L215.323 57.333L219.371 54.9998V59.9949L215.91 63.4561C215.504 63.8557 215.504 64.5131 215.91 64.9127L216.638 65.641C217.038 66.0406 217.695 66.0406 218.095 65.641L219.364 64.3713V66.9688C219.364 67.5359 219.828 68 220.396 68H222.458C223.025 68 223.489 67.5359 223.489 66.9688V64.3648L224.759 65.6346C225.159 66.0342 225.816 66.0342 226.216 65.6346L226.944 64.9062C227.344 64.5066 227.344 63.8492 226.944 63.4496L223.502 59.9885V54.9934L227.55 57.3266L228.774 61.8898C228.916 62.4184 229.464 62.7342 229.993 62.5924L230.953 62.3346C231.481 62.1928 231.797 61.6449 231.656 61.1164L231.204 59.4406L233.383 60.6975C233.86 60.9746 234.466 60.807 234.743 60.3301L235.742 58.6027C236.019 58.1322 235.858 57.5199 235.381 57.2492V57.2492Z" fill="#F0F0F0" fill-opacity="0.29"/>
</g>
<g filter="url(#filter7_i_2_26)">
<path d="M46.3809 43.2492L44.2024 41.9924L45.8782 41.5412C46.4067 41.3994 46.7225 40.8516 46.5807 40.323L46.3229 39.3627C46.1811 38.8342 45.6332 38.5184 45.1047 38.6602L40.5414 39.8848L36.4229 37.5L40.535 35.1217L45.0983 36.3463C45.6268 36.4881 46.1746 36.1723 46.3164 35.6437L46.5743 34.6834C46.716 34.1549 46.4002 33.607 45.8717 33.4652L44.1959 33.0141L46.3744 31.7572C46.8514 31.4801 47.0125 30.8742 46.7418 30.3973L45.7428 28.6699C45.4657 28.193 44.8598 28.0318 44.3828 28.3025L42.2043 29.5594L42.6555 27.8836C42.7973 27.3551 42.4815 26.8072 41.953 26.6654L40.9926 26.4076C40.4641 26.2658 39.9162 26.5816 39.7744 27.1102L38.5498 31.6734L34.5022 34.0066V29.0115L37.9633 25.5504C38.3629 25.1508 38.3629 24.4934 37.9633 24.0938L37.235 23.3654C36.8354 22.9658 36.178 22.9658 35.7784 23.3654L34.5022 24.6352V22.0312C34.5022 21.4641 34.0381 21 33.4709 21H31.4084C30.8412 21 30.3772 21.4641 30.3772 22.0312V24.6352L29.1075 23.3654C28.7078 22.9658 28.0504 22.9658 27.6508 23.3654L26.9161 24.0938C26.51 24.4934 26.51 25.1508 26.9161 25.5504L30.3772 29.0115V34.0066L26.3295 31.6734L25.1049 27.1102C24.9631 26.5816 24.4153 26.2658 23.8868 26.4076L22.9264 26.6654C22.3979 26.8072 22.0821 27.3551 22.2239 27.8836L22.675 29.5594L20.4965 28.3025C20.0196 28.0254 19.4137 28.193 19.1366 28.6699L18.1375 30.3908C17.8604 30.8678 18.028 31.4736 18.5049 31.7508L20.6834 33.0076L19.0077 33.4588C18.4727 33.6006 18.1569 34.1484 18.2987 34.6834L18.5565 35.6437C18.6983 36.1723 19.2461 36.4881 19.7746 36.3463L24.3379 35.1217L28.45 37.5L24.3379 39.8783L19.7746 38.6537C19.2461 38.5119 18.6983 38.8277 18.5565 39.3562L18.2987 40.3166C18.1569 40.8451 18.4727 41.393 19.0012 41.5348L20.677 41.9859L18.4985 43.2492C18.0215 43.5264 17.8604 44.1322 18.1311 44.6092L19.1301 46.3365C19.4073 46.8135 20.0131 46.9746 20.4901 46.7039L22.6686 45.4471L22.2174 47.1229C22.0756 47.6514 22.3914 48.1992 22.92 48.341L23.8803 48.5988C24.4088 48.7406 24.9567 48.4248 25.0985 47.8963L26.3231 43.333L30.3707 40.9998V45.9949L26.9096 49.4561C26.5036 49.8557 26.5036 50.5131 26.9096 50.9127L27.6379 51.641C28.0375 52.0406 28.695 52.0406 29.0946 51.641L30.3643 50.3713V52.9688C30.3643 53.5359 30.8284 54 31.3955 54H33.458C34.0252 54 34.4893 53.5359 34.4893 52.9688V50.3648L35.759 51.6346C36.1586 52.0342 36.8161 52.0342 37.2157 51.6346L37.944 50.9062C38.3436 50.5066 38.3436 49.8492 37.944 49.4496L34.5022 45.9885V40.9934L38.5498 43.3266L39.7744 47.8898C39.9162 48.4184 40.4641 48.7342 40.9926 48.5924L41.953 48.3346C42.4815 48.1928 42.7973 47.6449 42.6555 47.1164L42.2043 45.4406L44.3828 46.6975C44.8598 46.9746 45.4657 46.807 45.7428 46.3301L46.7418 44.6027C47.019 44.1322 46.8578 43.5199 46.3809 43.2492V43.2492Z" fill="#F0F0F0" fill-opacity="0.29"/>
</g>
<g filter="url(#filter8_i_2_26)">
<path d="M93.3607 261.53L91.6443 260.539L92.9646 260.184C93.381 260.072 93.6298 259.641 93.5181 259.224L93.315 258.468C93.2033 258.051 92.7716 257.802 92.3552 257.914L88.7599 258.879L85.515 257L88.7548 255.126L92.3502 256.091C92.7666 256.203 93.1982 255.954 93.3099 255.537L93.513 254.781C93.6248 254.364 93.3759 253.933 92.9595 253.821L91.6392 253.466L93.3556 252.475C93.7314 252.257 93.8584 251.78 93.6451 251.404L92.858 250.043C92.6396 249.667 92.1623 249.54 91.7865 249.754L90.0701 250.744L90.4255 249.423C90.5373 249.007 90.2884 248.575 89.872 248.464L89.1154 248.261C88.699 248.149 88.2673 248.398 88.1556 248.814L87.1908 252.409L84.0017 254.248V250.312L86.7287 247.585C87.0435 247.27 87.0435 246.752 86.7287 246.438L86.1548 245.864C85.84 245.549 85.322 245.549 85.0072 245.864L84.0017 246.864V244.812C84.0017 244.366 83.6361 244 83.1892 244H81.5642C81.1173 244 80.7517 244.366 80.7517 244.812V246.864L79.7513 245.864C79.4365 245.549 78.9185 245.549 78.6037 245.864L78.0248 246.438C77.7048 246.752 77.7048 247.27 78.0248 247.585L80.7517 250.312V254.248L77.5627 252.409L76.5978 248.814C76.4861 248.398 76.0545 248.149 75.638 248.261L74.8814 248.464C74.465 248.575 74.2162 249.007 74.3279 249.423L74.6834 250.744L72.967 249.754C72.5912 249.535 72.1138 249.667 71.8955 250.043L71.1084 251.399C70.89 251.775 71.022 252.252 71.3978 252.47L73.1142 253.461L71.7939 253.816C71.3724 253.928 71.1236 254.359 71.2353 254.781L71.4384 255.537C71.5502 255.954 71.9818 256.203 72.3982 256.091L75.9935 255.126L79.2334 257L75.9935 258.874L72.3982 257.909C71.9818 257.797 71.5502 258.046 71.4384 258.462L71.2353 259.219C71.1236 259.636 71.3724 260.067 71.7888 260.179L73.1091 260.534L71.3927 261.53C71.017 261.748 70.89 262.225 71.1033 262.601L71.8904 263.962C72.1088 264.338 72.5861 264.465 72.9619 264.252L74.6783 263.261L74.3228 264.582C74.2111 264.998 74.4599 265.43 74.8763 265.541L75.633 265.745C76.0494 265.856 76.481 265.607 76.5927 265.191L77.5576 261.596L80.7466 259.757V263.693L78.0197 266.42C77.6998 266.735 77.6998 267.253 78.0197 267.568L78.5935 268.141C78.9084 268.456 79.4263 268.456 79.7412 268.141L80.7416 267.141V269.188C80.7416 269.634 81.1072 270 81.5541 270H83.1791C83.6259 270 83.9916 269.634 83.9916 269.188V267.136L84.992 268.136C85.3068 268.451 85.8248 268.451 86.1396 268.136L86.7134 267.562C87.0283 267.248 87.0283 266.73 86.7134 266.415L84.0017 263.688V259.752L87.1908 261.591L88.1556 265.186C88.2673 265.602 88.699 265.851 89.1154 265.739L89.872 265.536C90.2884 265.425 90.5373 264.993 90.4255 264.577L90.0701 263.256L91.7865 264.246C92.1623 264.465 92.6396 264.333 92.858 263.957L93.6451 262.596C93.8634 262.225 93.7365 261.743 93.3607 261.53V261.53Z" fill="#F0F0F0" fill-opacity="0.29"/>
</g>
<g filter="url(#filter9_i_2_26)">
<path d="M325.361 228.53L323.644 227.539L324.965 227.184C325.381 227.072 325.63 226.641 325.518 226.224L325.315 225.468C325.203 225.051 324.772 224.802 324.355 224.914L320.76 225.879L317.515 224L320.755 222.126L324.35 223.091C324.767 223.203 325.198 222.954 325.31 222.537L325.513 221.781C325.625 221.364 325.376 220.933 324.96 220.821L323.639 220.466L325.356 219.475C325.731 219.257 325.858 218.78 325.645 218.404L324.858 217.043C324.64 216.667 324.162 216.54 323.786 216.754L322.07 217.744L322.426 216.423C322.537 216.007 322.288 215.575 321.872 215.464L321.115 215.261C320.699 215.149 320.267 215.398 320.156 215.814L319.191 219.409L316.002 221.248V217.312L318.729 214.585C319.044 214.27 319.044 213.752 318.729 213.438L318.155 212.864C317.84 212.549 317.322 212.549 317.007 212.864L316.002 213.864V211.812C316.002 211.366 315.636 211 315.189 211H313.564C313.117 211 312.752 211.366 312.752 211.812V213.864L311.751 212.864C311.436 212.549 310.919 212.549 310.604 212.864L310.025 213.438C309.705 213.752 309.705 214.27 310.025 214.585L312.752 217.312V221.248L309.563 219.409L308.598 215.814C308.486 215.398 308.054 215.149 307.638 215.261L306.881 215.464C306.465 215.575 306.216 216.007 306.328 216.423L306.683 217.744L304.967 216.754C304.591 216.535 304.114 216.667 303.895 217.043L303.108 218.399C302.89 218.775 303.022 219.252 303.398 219.47L305.114 220.461L303.794 220.816C303.372 220.928 303.124 221.359 303.235 221.781L303.438 222.537C303.55 222.954 303.982 223.203 304.398 223.091L307.994 222.126L311.233 224L307.994 225.874L304.398 224.909C303.982 224.797 303.55 225.046 303.438 225.462L303.235 226.219C303.124 226.636 303.372 227.067 303.789 227.179L305.109 227.534L303.393 228.53C303.017 228.748 302.89 229.225 303.103 229.601L303.89 230.962C304.109 231.338 304.586 231.465 304.962 231.252L306.678 230.261L306.323 231.582C306.211 231.998 306.46 232.43 306.876 232.541L307.633 232.745C308.049 232.856 308.481 232.607 308.593 232.191L309.558 228.596L312.747 226.757V230.693L310.02 233.42C309.7 233.735 309.7 234.253 310.02 234.568L310.594 235.141C310.908 235.456 311.426 235.456 311.741 235.141L312.742 234.141V236.188C312.742 236.634 313.107 237 313.554 237H315.179C315.626 237 315.992 236.634 315.992 236.188V234.136L316.992 235.136C317.307 235.451 317.825 235.451 318.14 235.136L318.713 234.562C319.028 234.248 319.028 233.73 318.713 233.415L316.002 230.688V226.752L319.191 228.591L320.156 232.186C320.267 232.602 320.699 232.851 321.115 232.739L321.872 232.536C322.288 232.425 322.537 231.993 322.426 231.577L322.07 230.256L323.786 231.246C324.162 231.465 324.64 231.333 324.858 230.957L325.645 229.596C325.863 229.225 325.736 228.743 325.361 228.53V228.53Z" fill="#F0F0F0" fill-opacity="0.29"/>
</g>
<g filter="url(#filter10_i_2_26)">
<path d="M285.361 120.53L283.644 119.539L284.965 119.184C285.381 119.072 285.63 118.641 285.518 118.224L285.315 117.468C285.203 117.051 284.772 116.802 284.355 116.914L280.76 117.879L277.515 116L280.755 114.126L284.35 115.091C284.767 115.203 285.198 114.954 285.31 114.537L285.513 113.781C285.625 113.364 285.376 112.933 284.96 112.821L283.639 112.466L285.356 111.475C285.731 111.257 285.858 110.78 285.645 110.404L284.858 109.043C284.64 108.667 284.162 108.54 283.786 108.754L282.07 109.744L282.426 108.423C282.537 108.007 282.288 107.575 281.872 107.464L281.115 107.261C280.699 107.149 280.267 107.398 280.156 107.814L279.191 111.409L276.002 113.248V109.312L278.729 106.585C279.044 106.27 279.044 105.752 278.729 105.438L278.155 104.864C277.84 104.549 277.322 104.549 277.007 104.864L276.002 105.864V103.812C276.002 103.366 275.636 103 275.189 103H273.564C273.117 103 272.752 103.366 272.752 103.812V105.864L271.751 104.864C271.436 104.549 270.919 104.549 270.604 104.864L270.025 105.438C269.705 105.752 269.705 106.27 270.025 106.585L272.752 109.312V113.248L269.563 111.409L268.598 107.814C268.486 107.398 268.054 107.149 267.638 107.261L266.881 107.464C266.465 107.575 266.216 108.007 266.328 108.423L266.683 109.744L264.967 108.754C264.591 108.535 264.114 108.667 263.895 109.043L263.108 110.399C262.89 110.775 263.022 111.252 263.398 111.47L265.114 112.461L263.794 112.816C263.372 112.928 263.124 113.359 263.235 113.781L263.438 114.537C263.55 114.954 263.982 115.203 264.398 115.091L267.994 114.126L271.233 116L267.994 117.874L264.398 116.909C263.982 116.797 263.55 117.046 263.438 117.462L263.235 118.219C263.124 118.636 263.372 119.067 263.789 119.179L265.109 119.534L263.393 120.53C263.017 120.748 262.89 121.225 263.103 121.601L263.89 122.962C264.109 123.338 264.586 123.465 264.962 123.252L266.678 122.261L266.323 123.582C266.211 123.998 266.46 124.43 266.876 124.541L267.633 124.745C268.049 124.856 268.481 124.607 268.593 124.191L269.558 120.596L272.747 118.757V122.693L270.02 125.42C269.7 125.735 269.7 126.253 270.02 126.568L270.594 127.141C270.908 127.456 271.426 127.456 271.741 127.141L272.742 126.141V128.188C272.742 128.634 273.107 129 273.554 129H275.179C275.626 129 275.992 128.634 275.992 128.188V126.136L276.992 127.136C277.307 127.451 277.825 127.451 278.14 127.136L278.713 126.562C279.028 126.248 279.028 125.73 278.713 125.415L276.002 122.688V118.752L279.191 120.591L280.156 124.186C280.267 124.602 280.699 124.851 281.115 124.739L281.872 124.536C282.288 124.425 282.537 123.993 282.426 123.577L282.07 122.256L283.786 123.246C284.162 123.465 284.64 123.333 284.858 122.957L285.645 121.596C285.863 121.225 285.736 120.743 285.361 120.53V120.53Z" fill="#F0F0F0" fill-opacity="0.29"/>
</g>
<g filter="url(#filter11_i_2_26)">
<path d="M206.361 215.53L204.644 214.539L205.965 214.184C206.381 214.072 206.63 213.641 206.518 213.224L206.315 212.468C206.203 212.051 205.772 211.802 205.355 211.914L201.76 212.879L198.515 211L201.755 209.126L205.35 210.091C205.767 210.203 206.198 209.954 206.31 209.537L206.513 208.781C206.625 208.364 206.376 207.933 205.96 207.821L204.639 207.466L206.356 206.475C206.731 206.257 206.858 205.78 206.645 205.404L205.858 204.043C205.64 203.667 205.162 203.54 204.786 203.754L203.07 204.744L203.426 203.423C203.537 203.007 203.288 202.575 202.872 202.464L202.115 202.261C201.699 202.149 201.267 202.398 201.156 202.814L200.191 206.409L197.002 208.248V204.312L199.729 201.585C200.044 201.27 200.044 200.752 199.729 200.438L199.155 199.864C198.84 199.549 198.322 199.549 198.007 199.864L197.002 200.864V198.812C197.002 198.366 196.636 198 196.189 198H194.564C194.117 198 193.752 198.366 193.752 198.812V200.864L192.751 199.864C192.436 199.549 191.919 199.549 191.604 199.864L191.025 200.438C190.705 200.752 190.705 201.27 191.025 201.585L193.752 204.312V208.248L190.563 206.409L189.598 202.814C189.486 202.398 189.054 202.149 188.638 202.261L187.881 202.464C187.465 202.575 187.216 203.007 187.328 203.423L187.683 204.744L185.967 203.754C185.591 203.535 185.114 203.667 184.895 204.043L184.108 205.399C183.89 205.775 184.022 206.252 184.398 206.47L186.114 207.461L184.794 207.816C184.372 207.928 184.124 208.359 184.235 208.781L184.438 209.537C184.55 209.954 184.982 210.203 185.398 210.091L188.994 209.126L192.233 211L188.994 212.874L185.398 211.909C184.982 211.797 184.55 212.046 184.438 212.462L184.235 213.219C184.124 213.636 184.372 214.067 184.789 214.179L186.109 214.534L184.393 215.53C184.017 215.748 183.89 216.225 184.103 216.601L184.89 217.962C185.109 218.338 185.586 218.465 185.962 218.252L187.678 217.261L187.323 218.582C187.211 218.998 187.46 219.43 187.876 219.541L188.633 219.745C189.049 219.856 189.481 219.607 189.593 219.191L190.558 215.596L193.747 213.757V217.693L191.02 220.42C190.7 220.735 190.7 221.253 191.02 221.568L191.594 222.141C191.908 222.456 192.426 222.456 192.741 222.141L193.742 221.141V223.188C193.742 223.634 194.107 224 194.554 224H196.179C196.626 224 196.992 223.634 196.992 223.188V221.136L197.992 222.136C198.307 222.451 198.825 222.451 199.14 222.136L199.713 221.562C200.028 221.248 200.028 220.73 199.713 220.415L197.002 217.688V213.752L200.191 215.591L201.156 219.186C201.267 219.602 201.699 219.851 202.115 219.739L202.872 219.536C203.288 219.425 203.537 218.993 203.426 218.577L203.07 217.256L204.786 218.246C205.162 218.465 205.64 218.333 205.858 217.957L206.645 216.596C206.863 216.225 206.736 215.743 206.361 215.53V215.53Z" fill="#F0F0F0" fill-opacity="0.29"/>
</g>
<g filter="url(#filter12_i_2_26)">
<path d="M350.361 437.53L348.644 436.539L349.965 436.184C350.381 436.072 350.63 435.641 350.518 435.224L350.315 434.468C350.203 434.051 349.772 433.802 349.355 433.914L345.76 434.879L342.515 433L345.755 431.126L349.35 432.091C349.767 432.203 350.198 431.954 350.31 431.537L350.513 430.781C350.625 430.364 350.376 429.933 349.96 429.821L348.639 429.466L350.356 428.475C350.731 428.257 350.858 427.78 350.645 427.404L349.858 426.043C349.64 425.667 349.162 425.54 348.786 425.754L347.07 426.744L347.426 425.423C347.537 425.007 347.288 424.575 346.872 424.464L346.115 424.261C345.699 424.149 345.267 424.398 345.156 424.814L344.191 428.409L341.002 430.248V426.312L343.729 423.585C344.044 423.27 344.044 422.752 343.729 422.438L343.155 421.864C342.84 421.549 342.322 421.549 342.007 421.864L341.002 422.864V420.812C341.002 420.366 340.636 420 340.189 420H338.564C338.117 420 337.752 420.366 337.752 420.812V422.864L336.751 421.864C336.436 421.549 335.919 421.549 335.604 421.864L335.025 422.438C334.705 422.752 334.705 423.27 335.025 423.585L337.752 426.312V430.248L334.563 428.409L333.598 424.814C333.486 424.398 333.054 424.149 332.638 424.261L331.881 424.464C331.465 424.575 331.216 425.007 331.328 425.423L331.683 426.744L329.967 425.754C329.591 425.535 329.114 425.667 328.895 426.043L328.108 427.399C327.89 427.775 328.022 428.252 328.398 428.47L330.114 429.461L328.794 429.816C328.372 429.928 328.124 430.359 328.235 430.781L328.438 431.537C328.55 431.954 328.982 432.203 329.398 432.091L332.994 431.126L336.233 433L332.994 434.874L329.398 433.909C328.982 433.797 328.55 434.046 328.438 434.462L328.235 435.219C328.124 435.636 328.372 436.067 328.789 436.179L330.109 436.534L328.393 437.53C328.017 437.748 327.89 438.225 328.103 438.601L328.89 439.962C329.109 440.338 329.586 440.465 329.962 440.252L331.678 439.261L331.323 440.582C331.211 440.998 331.46 441.43 331.876 441.541L332.633 441.745C333.049 441.856 333.481 441.607 333.593 441.191L334.558 437.596L337.747 435.757V439.693L335.02 442.42C334.7 442.735 334.7 443.253 335.02 443.568L335.594 444.141C335.908 444.456 336.426 444.456 336.741 444.141L337.742 443.141V445.188C337.742 445.634 338.107 446 338.554 446H340.179C340.626 446 340.992 445.634 340.992 445.188V443.136L341.992 444.136C342.307 444.451 342.825 444.451 343.14 444.136L343.713 443.562C344.028 443.248 344.028 442.73 343.713 442.415L341.002 439.688V435.752L344.191 437.591L345.156 441.186C345.267 441.602 345.699 441.851 346.115 441.739L346.872 441.536C347.288 441.425 347.537 440.993 347.426 440.577L347.07 439.256L348.786 440.246C349.162 440.465 349.64 440.333 349.858 439.957L350.645 438.596C350.863 438.225 350.736 437.743 350.361 437.53V437.53Z" fill="#F0F0F0" fill-opacity="0.29"/>
</g>
<g filter="url(#filter13_i_2_26)">
<path d="M220.361 473.53L218.644 472.539L219.965 472.184C220.381 472.072 220.63 471.641 220.518 471.224L220.315 470.468C220.203 470.051 219.772 469.802 219.355 469.914L215.76 470.879L212.515 469L215.755 467.126L219.35 468.091C219.767 468.203 220.198 467.954 220.31 467.537L220.513 466.781C220.625 466.364 220.376 465.933 219.96 465.821L218.639 465.466L220.356 464.475C220.731 464.257 220.858 463.78 220.645 463.404L219.858 462.043C219.64 461.667 219.162 461.54 218.786 461.754L217.07 462.744L217.426 461.423C217.537 461.007 217.288 460.575 216.872 460.464L216.115 460.261C215.699 460.149 215.267 460.398 215.156 460.814L214.191 464.409L211.002 466.248V462.312L213.729 459.585C214.044 459.27 214.044 458.752 213.729 458.438L213.155 457.864C212.84 457.549 212.322 457.549 212.007 457.864L211.002 458.864V456.812C211.002 456.366 210.636 456 210.189 456H208.564C208.117 456 207.752 456.366 207.752 456.812V458.864L206.751 457.864C206.436 457.549 205.919 457.549 205.604 457.864L205.025 458.438C204.705 458.752 204.705 459.27 205.025 459.585L207.752 462.312V466.248L204.563 464.409L203.598 460.814C203.486 460.398 203.054 460.149 202.638 460.261L201.881 460.464C201.465 460.575 201.216 461.007 201.328 461.423L201.683 462.744L199.967 461.754C199.591 461.535 199.114 461.667 198.895 462.043L198.108 463.399C197.89 463.775 198.022 464.252 198.398 464.47L200.114 465.461L198.794 465.816C198.372 465.928 198.124 466.359 198.235 466.781L198.438 467.537C198.55 467.954 198.982 468.203 199.398 468.091L202.994 467.126L206.233 469L202.994 470.874L199.398 469.909C198.982 469.797 198.55 470.046 198.438 470.462L198.235 471.219C198.124 471.636 198.372 472.067 198.789 472.179L200.109 472.534L198.393 473.53C198.017 473.748 197.89 474.225 198.103 474.601L198.89 475.962C199.109 476.338 199.586 476.465 199.962 476.252L201.678 475.261L201.323 476.582C201.211 476.998 201.46 477.43 201.876 477.541L202.633 477.745C203.049 477.856 203.481 477.607 203.593 477.191L204.558 473.596L207.747 471.757V475.693L205.02 478.42C204.7 478.735 204.7 479.253 205.02 479.568L205.594 480.141C205.908 480.456 206.426 480.456 206.741 480.141L207.742 479.141V481.188C207.742 481.634 208.107 482 208.554 482H210.179C210.626 482 210.992 481.634 210.992 481.188V479.136L211.992 480.136C212.307 480.451 212.825 480.451 213.14 480.136L213.713 479.562C214.028 479.248 214.028 478.73 213.713 478.415L211.002 475.688V471.752L214.191 473.591L215.156 477.186C215.267 477.602 215.699 477.851 216.115 477.739L216.872 477.536C217.288 477.425 217.537 476.993 217.426 476.577L217.07 475.256L218.786 476.246C219.162 476.465 219.64 476.333 219.858 475.957L220.645 474.596C220.863 474.225 220.736 473.743 220.361 473.53V473.53Z" fill="#F0F0F0" fill-opacity="0.29"/>
</g>
<g filter="url(#filter14_i_2_26)">
<path d="M110.361 373.53L108.644 372.539L109.965 372.184C110.381 372.072 110.63 371.641 110.518 371.224L110.315 370.468C110.203 370.051 109.772 369.802 109.355 369.914L105.76 370.879L102.515 369L105.755 367.126L109.35 368.091C109.767 368.203 110.198 367.954 110.31 367.537L110.513 366.781C110.625 366.364 110.376 365.933 109.96 365.821L108.639 365.466L110.356 364.475C110.731 364.257 110.858 363.78 110.645 363.404L109.858 362.043C109.64 361.667 109.162 361.54 108.786 361.754L107.07 362.744L107.426 361.423C107.537 361.007 107.288 360.575 106.872 360.464L106.115 360.261C105.699 360.149 105.267 360.398 105.156 360.814L104.191 364.409L101.002 366.248V362.312L103.729 359.585C104.044 359.27 104.044 358.752 103.729 358.438L103.155 357.864C102.84 357.549 102.322 357.549 102.007 357.864L101.002 358.864V356.812C101.002 356.366 100.636 356 100.189 356H98.5642C98.1173 356 97.7517 356.366 97.7517 356.812V358.864L96.7513 357.864C96.4365 357.549 95.9185 357.549 95.6037 357.864L95.0248 358.438C94.7048 358.752 94.7048 359.27 95.0248 359.585L97.7517 362.312V366.248L94.5627 364.409L93.5978 360.814C93.4861 360.398 93.0545 360.149 92.638 360.261L91.8814 360.464C91.465 360.575 91.2162 361.007 91.3279 361.423L91.6834 362.744L89.967 361.754C89.5912 361.535 89.1138 361.667 88.8955 362.043L88.1084 363.399C87.89 363.775 88.022 364.252 88.3978 364.47L90.1142 365.461L88.7939 365.816C88.3724 365.928 88.1236 366.359 88.2353 366.781L88.4384 367.537C88.5502 367.954 88.9818 368.203 89.3982 368.091L92.9935 367.126L96.2334 369L92.9935 370.874L89.3982 369.909C88.9818 369.797 88.5502 370.046 88.4384 370.462L88.2353 371.219C88.1236 371.636 88.3724 372.067 88.7888 372.179L90.1091 372.534L88.3927 373.53C88.017 373.748 87.89 374.225 88.1033 374.601L88.8904 375.962C89.1088 376.338 89.5861 376.465 89.9619 376.252L91.6783 375.261L91.3228 376.582C91.2111 376.998 91.4599 377.43 91.8763 377.541L92.633 377.745C93.0494 377.856 93.481 377.607 93.5927 377.191L94.5576 373.596L97.7466 371.757V375.693L95.0197 378.42C94.6998 378.735 94.6998 379.253 95.0197 379.568L95.5935 380.141C95.9084 380.456 96.4263 380.456 96.7412 380.141L97.7416 379.141V381.188C97.7416 381.634 98.1072 382 98.5541 382H100.179C100.626 382 100.992 381.634 100.992 381.188V379.136L101.992 380.136C102.307 380.451 102.825 380.451 103.14 380.136L103.713 379.562C104.028 379.248 104.028 378.73 103.713 378.415L101.002 375.688V371.752L104.191 373.591L105.156 377.186C105.267 377.602 105.699 377.851 106.115 377.739L106.872 377.536C107.288 377.425 107.537 376.993 107.426 376.577L107.07 375.256L108.786 376.246C109.162 376.465 109.64 376.333 109.858 375.957L110.645 374.596C110.863 374.225 110.736 373.743 110.361 373.53V373.53Z" fill="#F0F0F0" fill-opacity="0.29"/>
</g>
<g filter="url(#filter15_i_2_26)">
<path d="M151.177 172.67L143.181 168.056L149.332 166.4C151.272 165.88 152.431 163.869 151.911 161.929L150.964 158.404C150.444 156.464 148.433 155.304 146.493 155.825L129.743 160.32L114.625 151.566L129.719 142.836L146.469 147.331C148.409 147.852 150.42 146.693 150.941 144.753L151.887 141.227C152.408 139.287 151.248 137.276 149.308 136.756L143.157 135.1L151.154 130.486C152.904 129.469 153.496 127.245 152.502 125.494L148.835 119.154C147.818 117.403 145.594 116.812 143.843 117.805L135.847 122.419L137.503 116.268C138.023 114.328 136.864 112.317 134.924 111.796L131.399 110.85C129.459 110.329 127.448 111.488 126.927 113.428L122.432 130.179L107.574 138.743V120.408L120.279 107.703C121.746 106.236 121.746 103.823 120.279 102.356L117.606 99.6828C116.139 98.2159 113.726 98.2159 112.259 99.6828L107.574 104.344V94.7854C107.574 92.7034 105.871 91 103.789 91H96.2182C94.1362 91 92.4328 92.7034 92.4328 94.7854V104.344L87.772 99.6828C86.3052 98.2159 83.892 98.2159 82.4251 99.6828L79.728 102.356C78.2375 103.823 78.2375 106.236 79.728 107.703L92.4328 120.408V138.743L77.5751 130.179L73.0799 113.428C72.5594 111.488 70.5485 110.329 68.6084 110.85L65.0833 111.796C63.1433 112.317 61.984 114.328 62.5045 116.268L64.1606 122.419L56.1639 117.805C54.4132 116.788 52.1893 117.403 51.172 119.154L47.5048 125.471C46.4875 127.222 47.1027 129.445 48.8534 130.463L56.85 135.076L50.6988 136.732C48.7351 137.253 47.5758 139.264 48.0963 141.227L49.0427 144.753C49.5632 146.693 51.5742 147.852 53.5142 147.331L70.2645 142.836L85.3588 151.566L70.2645 160.296L53.5142 155.801C51.5742 155.281 49.5632 156.44 49.0427 158.38L48.0963 161.905C47.5758 163.845 48.7351 165.856 50.6751 166.377L56.8264 168.033L48.8297 172.67C47.079 173.687 46.4875 175.911 47.4812 177.662L51.1483 184.002C52.1656 185.753 54.3895 186.345 56.1403 185.351L64.1369 180.738L62.4808 186.889C61.9603 188.829 63.1196 190.84 65.0596 191.36L68.5848 192.307C70.5248 192.827 72.5358 191.668 73.0563 189.728L77.5514 172.977L92.4091 164.413V182.749L79.7044 195.453C78.2139 196.92 78.2139 199.333 79.7044 200.8L82.3778 203.474C83.8447 204.94 86.2578 204.94 87.7247 203.474L92.3855 198.813V208.347C92.3855 210.429 94.0889 212.133 96.1708 212.133H103.742C105.824 212.133 107.527 210.429 107.527 208.347V198.789L112.188 203.45C113.655 204.917 116.068 204.917 117.535 203.45L120.208 200.777C121.675 199.31 121.675 196.896 120.208 195.43L107.574 182.725V164.389L122.432 172.954L126.927 189.704C127.448 191.644 129.459 192.804 131.399 192.283L134.924 191.337C136.864 190.816 138.023 188.805 137.503 186.865L135.847 180.714L143.843 185.327C145.594 186.345 147.818 185.73 148.835 183.979L152.502 177.638C153.52 175.911 152.928 173.664 151.177 172.67V172.67Z" fill="#F0F0F0" fill-opacity="0.29"/>
</g>
<defs>
<filter id="filter0_d_2_26" x="0" y="0" width="508" height="508" filterUnits="userSpaceOnUse" color-interpolation-filters="sRGB">
<feFlood flood-opacity="0" result="BackgroundImageFix"/>
<feColorMatrix in="SourceAlpha" type="matrix" values="0 0 0 0 0 0 0 0 0 0 0 0 0 0 0 0 0 0 127 0" result="hardAlpha"/>
<feOffset dy="4"/>
<feGaussianBlur stdDeviation="2"/>
<feComposite in2="hardAlpha" operator="out"/>
<feColorMatrix type="matrix" values="0 0 0 0 0 0 0 0 0 0 0 0 0 0 0 0 0 0 0.25 0"/>
<feBlend mode="normal" in2="BackgroundImageFix" result="effect1_dropShadow_2_26"/>
<feBlend mode="normal" in="SourceGraphic" in2="effect1_dropShadow_2_26" result="shape"/>
</filter>
<filter id="filter1_d_2_26" x="86.1313" y="112.847" width="345.14" height="320.999" filterUnits="userSpaceOnUse" color-interpolation-filters="sRGB">
<feFlood flood-opacity="0" result="BackgroundImageFix"/>
<feColorMatrix in="SourceAlpha" type="matrix" values="0 0 0 0 0 0 0 0 0 0 0 0 0 0 0 0 0 0 127 0" result="hardAlpha"/>
<feOffset dy="4"/>
<feGaussianBlur stdDeviation="2"/>
<feComposite in2="hardAlpha" operator="out"/>
<feColorMatrix type="matrix" values="0 0 0 0 0 0 0 0 0 0 0 0 0 0 0 0 0 0 0.25 0"/>
<feBlend mode="normal" in2="BackgroundImageFix" result="effect1_dropShadow_2_26"/>
<feBlend mode="normal" in="SourceGraphic" in2="effect1_dropShadow_2_26" result="shape"/>
</filter>
<filter id="filter2_i_2_26" x="303" y="35" width="165" height="192.556" filterUnits="userSpaceOnUse" color-interpolation-filters="sRGB">
<feFlood flood-opacity="0" result="BackgroundImageFix"/>
<feBlend mode="normal" in="SourceGraphic" in2="BackgroundImageFix" result="shape"/>
<feColorMatrix in="SourceAlpha" type="matrix" values="0 0 0 0 0 0 0 0 0 0 0 0 0 0 0 0 0 0 127 0" result="hardAlpha"/>
<feOffset dy="4"/>
<feGaussianBlur stdDeviation="2"/>
<feComposite in2="hardAlpha" operator="arithmetic" k2="-1" k3="1"/>
<feColorMatrix type="matrix" values="0 0 0 0 0 0 0 0 0 0 0 0 0 0 0 0 0 0 0.25 0"/>
<feBlend mode="normal" in2="shape" result="effect1_innerShadow_2_26"/>
</filter>
<filter id="filter3_i_2_26" x="22" y="415" width="59" height="68.8532" filterUnits="userSpaceOnUse" color-interpolation-filters="sRGB">
<feFlood flood-opacity="0" result="BackgroundImageFix"/>
<feBlend mode="normal" in="SourceGraphic" in2="BackgroundImageFix" result="shape"/>
<feColorMatrix in="SourceAlpha" type="matrix" values="0 0 0 0 0 0 0 0 0 0 0 0 0 0 0 0 0 0 127 0" result="hardAlpha"/>
<feOffset dy="1.4303"/>
<feGaussianBlur stdDeviation="0.715151"/>
<feComposite in2="hardAlpha" operator="arithmetic" k2="-1" k3="1"/>
<feColorMatrix type="matrix" values="0 0 0 0 0 0 0 0 0 0 0 0 0 0 0 0 0 0 0.25 0"/>
<feBlend mode="normal" in2="shape" result="effect1_innerShadow_2_26"/>
</filter>
<filter id="filter4_i_2_26" x="439" y="416" width="28.8774" height="33.7001" filterUnits="userSpaceOnUse" color-interpolation-filters="sRGB">
<feFlood flood-opacity="0" result="BackgroundImageFix"/>
<feBlend mode="normal" in="SourceGraphic" in2="BackgroundImageFix" result="shape"/>
<feColorMatrix in="SourceAlpha" type="matrix" values="0 0 0 0 0 0 0 0 0 0 0 0 0 0 0 0 0 0 127 0" result="hardAlpha"/>
<feOffset dy="0.700059"/>
<feGaussianBlur stdDeviation="0.350029"/>
<feComposite in2="hardAlpha" operator="arithmetic" k2="-1" k3="1"/>
<feColorMatrix type="matrix" values="0 0 0 0 0 0 0 0 0 0 0 0 0 0 0 0 0 0 0.25 0"/>
<feBlend mode="normal" in2="shape" result="effect1_innerShadow_2_26"/>
</filter>
<filter id="filter5_i_2_26" x="254" y="290" width="28.8774" height="33.7001" filterUnits="userSpaceOnUse" color-interpolation-filters="sRGB">
<feFlood flood-opacity="0" result="BackgroundImageFix"/>
<feBlend mode="normal" in="SourceGraphic" in2="BackgroundImageFix" result="shape"/>
<feColorMatrix in="SourceAlpha" type="matrix" values="0 0 0 0 0 0 0 0 0 0 0 0 0 0 0 0 0 0 127 0" result="hardAlpha"/>
<feOffset dy="0.700059"/>
<feGaussianBlur stdDeviation="0.350029"/>
<feComposite in2="hardAlpha" operator="arithmetic" k2="-1" k3="1"/>
<feColorMatrix type="matrix" values="0 0 0 0 0 0 0 0 0 0 0 0 0 0 0 0 0 0 0.25 0"/>
<feBlend mode="normal" in2="shape" result="effect1_innerShadow_2_26"/>
</filter>
<filter id="filter6_i_2_26" x="207" y="35" width="28.8774" height="33.7001" filterUnits="userSpaceOnUse" color-interpolation-filters="sRGB">
<feFlood flood-opacity="0" result="BackgroundImageFix"/>
<feBlend mode="normal" in="SourceGraphic" in2="BackgroundImageFix" result="shape"/>
<feColorMatrix in="SourceAlpha" type="matrix" values="0 0 0 0 0 0 0 0 0 0 0 0 0 0 0 0 0 0 127 0" result="hardAlpha"/>
<feOffset dy="0.700059"/>
<feGaussianBlur stdDeviation="0.350029"/>
<feComposite in2="hardAlpha" operator="arithmetic" k2="-1" k3="1"/>
<feColorMatrix type="matrix" values="0 0 0 0 0 0 0 0 0 0 0 0 0 0 0 0 0 0 0.25 0"/>
<feBlend mode="normal" in2="shape" result="effect1_innerShadow_2_26"/>
</filter>
<filter id="filter7_i_2_26" x="18" y="21" width="28.8774" height="33.7001" filterUnits="userSpaceOnUse" color-interpolation-filters="sRGB">
<feFlood flood-opacity="0" result="BackgroundImageFix"/>
<feBlend mode="normal" in="SourceGraphic" in2="BackgroundImageFix" result="shape"/>
<feColorMatrix in="SourceAlpha" type="matrix" values="0 0 0 0 0 0 0 0 0 0 0 0 0 0 0 0 0 0 127 0" result="hardAlpha"/>
<feOffset dy="0.700059"/>
<feGaussianBlur stdDeviation="0.350029"/>
<feComposite in2="hardAlpha" operator="arithmetic" k2="-1" k3="1"/>
<feColorMatrix type="matrix" values="0 0 0 0 0 0 0 0 0 0 0 0 0 0 0 0 0 0 0.25 0"/>
<feBlend mode="normal" in2="shape" result="effect1_innerShadow_2_26"/>
</filter>
<filter id="filter8_i_2_26" x="71" y="244" width="22.7519" height="26.5516" filterUnits="userSpaceOnUse" color-interpolation-filters="sRGB">
<feFlood flood-opacity="0" result="BackgroundImageFix"/>
<feBlend mode="normal" in="SourceGraphic" in2="BackgroundImageFix" result="shape"/>
<feColorMatrix in="SourceAlpha" type="matrix" values="0 0 0 0 0 0 0 0 0 0 0 0 0 0 0 0 0 0 127 0" result="hardAlpha"/>
<feOffset dy="0.551561"/>
<feGaussianBlur stdDeviation="0.275781"/>
<feComposite in2="hardAlpha" operator="arithmetic" k2="-1" k3="1"/>
<feColorMatrix type="matrix" values="0 0 0 0 0 0 0 0 0 0 0 0 0 0 0 0 0 0 0.25 0"/>
<feBlend mode="normal" in2="shape" result="effect1_innerShadow_2_26"/>
</filter>
<filter id="filter9_i_2_26" x="303" y="211" width="22.7519" height="26.5516" filterUnits="userSpaceOnUse" color-interpolation-filters="sRGB">
<feFlood flood-opacity="0" result="BackgroundImageFix"/>
<feBlend mode="normal" in="SourceGraphic" in2="BackgroundImageFix" result="shape"/>
<feColorMatrix in="SourceAlpha" type="matrix" values="0 0 0 0 0 0 0 0 0 0 0 0 0 0 0 0 0 0 127 0" result="hardAlpha"/>
<feOffset dy="0.551561"/>
<feGaussianBlur stdDeviation="0.275781"/>
<feComposite in2="hardAlpha" operator="arithmetic" k2="-1" k3="1"/>
<feColorMatrix type="matrix" values="0 0 0 0 0 0 0 0 0 0 0 0 0 0 0 0 0 0 0.25 0"/>
<feBlend mode="normal" in2="shape" result="effect1_innerShadow_2_26"/>
</filter>
<filter id="filter10_i_2_26" x="263" y="103" width="22.7519" height="26.5516" filterUnits="userSpaceOnUse" color-interpolation-filters="sRGB">
<feFlood flood-opacity="0" result="BackgroundImageFix"/>
<feBlend mode="normal" in="SourceGraphic" in2="BackgroundImageFix" result="shape"/>
<feColorMatrix in="SourceAlpha" type="matrix" values="0 0 0 0 0 0 0 0 0 0 0 0 0 0 0 0 0 0 127 0" result="hardAlpha"/>
<feOffset dy="0.551561"/>
<feGaussianBlur stdDeviation="0.275781"/>
<feComposite in2="hardAlpha" operator="arithmetic" k2="-1" k3="1"/>
<feColorMatrix type="matrix" values="0 0 0 0 0 0 0 0 0 0 0 0 0 0 0 0 0 0 0.25 0"/>
<feBlend mode="normal" in2="shape" result="effect1_innerShadow_2_26"/>
</filter>
<filter id="filter11_i_2_26" x="184" y="198" width="22.7519" height="26.5516" filterUnits="userSpaceOnUse" color-interpolation-filters="sRGB">
<feFlood flood-opacity="0" result="BackgroundImageFix"/>
<feBlend mode="normal" in="SourceGraphic" in2="BackgroundImageFix" result="shape"/>
<feColorMatrix in="SourceAlpha" type="matrix" values="0 0 0 0 0 0 0 0 0 0 0 0 0 0 0 0 0 0 127 0" result="hardAlpha"/>
<feOffset dy="0.551561"/>
<feGaussianBlur stdDeviation="0.275781"/>
<feComposite in2="hardAlpha" operator="arithmetic" k2="-1" k3="1"/>
<feColorMatrix type="matrix" values="0 0 0 0 0 0 0 0 0 0 0 0 0 0 0 0 0 0 0.25 0"/>
<feBlend mode="normal" in2="shape" result="effect1_innerShadow_2_26"/>
</filter>
<filter id="filter12_i_2_26" x="328" y="420" width="22.7519" height="26.5516" filterUnits="userSpaceOnUse" color-interpolation-filters="sRGB">
<feFlood flood-opacity="0" result="BackgroundImageFix"/>
<feBlend mode="normal" in="SourceGraphic" in2="BackgroundImageFix" result="shape"/>
<feColorMatrix in="SourceAlpha" type="matrix" values="0 0 0 0 0 0 0 0 0 0 0 0 0 0 0 0 0 0 127 0" result="hardAlpha"/>
<feOffset dy="0.551561"/>
<feGaussianBlur stdDeviation="0.275781"/>
<feComposite in2="hardAlpha" operator="arithmetic" k2="-1" k3="1"/>
<feColorMatrix type="matrix" values="0 0 0 0 0 0 0 0 0 0 0 0 0 0 0 0 0 0 0.25 0"/>
<feBlend mode="normal" in2="shape" result="effect1_innerShadow_2_26"/>
</filter>
<filter id="filter13_i_2_26" x="198" y="456" width="22.7519" height="26.5516" filterUnits="userSpaceOnUse" color-interpolation-filters="sRGB">
<feFlood flood-opacity="0" result="BackgroundImageFix"/>
<feBlend mode="normal" in="SourceGraphic" in2="BackgroundImageFix" result="shape"/>
<feColorMatrix in="SourceAlpha" type="matrix" values="0 0 0 0 0 0 0 0 0 0 0 0 0 0 0 0 0 0 127 0" result="hardAlpha"/>
<feOffset dy="0.551561"/>
<feGaussianBlur stdDeviation="0.275781"/>
<feComposite in2="hardAlpha" operator="arithmetic" k2="-1" k3="1"/>
<feColorMatrix type="matrix" values="0 0 0 0 0 0 0 0 0 0 0 0 0 0 0 0 0 0 0.25 0"/>
<feBlend mode="normal" in2="shape" result="effect1_innerShadow_2_26"/>
</filter>
<filter id="filter14_i_2_26" x="88" y="356" width="22.7519" height="26.5516" filterUnits="userSpaceOnUse" color-interpolation-filters="sRGB">
<feFlood flood-opacity="0" result="BackgroundImageFix"/>
<feBlend mode="normal" in="SourceGraphic" in2="BackgroundImageFix" result="shape"/>
<feColorMatrix in="SourceAlpha" type="matrix" values="0 0 0 0 0 0 0 0 0 0 0 0 0 0 0 0 0 0 127 0" result="hardAlpha"/>
<feOffset dy="0.551561"/>
<feGaussianBlur stdDeviation="0.275781"/>
<feComposite in2="hardAlpha" operator="arithmetic" k2="-1" k3="1"/>
<feColorMatrix type="matrix" values="0 0 0 0 0 0 0 0 0 0 0 0 0 0 0 0 0 0 0.25 0"/>
<feBlend mode="normal" in2="shape" result="effect1_innerShadow_2_26"/>
</filter>
<filter id="filter15_i_2_26" x="47" y="91" width="106" height="123.702" filterUnits="userSpaceOnUse" color-interpolation-filters="sRGB">
<feFlood flood-opacity="0" result="BackgroundImageFix"/>
<feBlend mode="normal" in="SourceGraphic" in2="BackgroundImageFix" result="shape"/>
<feColorMatrix in="SourceAlpha" type="matrix" values="0 0 0 0 0 0 0 0 0 0 0 0 0 0 0 0 0 0 127 0" result="hardAlpha"/>
<feOffset dy="2.5697"/>
<feGaussianBlur stdDeviation="1.28485"/>
<feComposite in2="hardAlpha" operator="arithmetic" k2="-1" k3="1"/>
<feColorMatrix type="matrix" values="0 0 0 0 0 0 0 0 0 0 0 0 0 0 0 0 0 0 0.25 0"/>
<feBlend mode="normal" in2="shape" result="effect1_innerShadow_2_26"/>
</filter>
</defs>
</svg>
